<svg xmlns="http://www.w3.org/2000/svg" xmlns:xlink="http://www.w3.org/1999/xlink" viewBox="0 0 405.69 348.79">
  <defs>
    <linearGradient id="linear-gradient" x1="279.75" x2="279.75" y1="348.7" y2="269.7" gradientTransform="matrix(-1 0 0 1 528.28 0)" gradientUnits="userSpaceOnUse">
      <stop offset="0" stop-color="#1e1c3f"/>
      <stop offset="1" stop-color="#211c6f"/>
    </linearGradient>
    <linearGradient id="Áåçûìÿííûé_ãðàäèåíò_26" x1="254.54" x2="275.2" y1="322.39" y2="322.39" gradientTransform="matrix(-1 0 0 1 528.28 0)" gradientUnits="userSpaceOnUse">
      <stop offset="0" stop-color="#9e8cef"/>
      <stop offset="1" stop-color="#caafee"/>
    </linearGradient>
    <linearGradient id="Áåçûìÿííûé_ãðàäèåíò_26-2" x1="272.07" x2="293.3" y1="322.19" y2="322.19" gradientTransform="translate(-48.43)" xlink:href="#Áåçûìÿííûé_ãðàäèåíò_26"/>
    <linearGradient id="linear-gradient-2" x1="277.7" x2="277.7" y1="348.7" y2="269.2" gradientTransform="matrix(-1 0 0 1 528.28 0)" gradientUnits="userSpaceOnUse">
      <stop offset="0" stop-color="#ccf"/>
      <stop offset="1" stop-color="#115cbb" stop-opacity=".5"/>
    </linearGradient>
    <linearGradient id="Áåçûìÿííûé_ãðàäèåíò_70" x1="288.09" x2="288.09" y1="314.14" y2="289.81" gradientTransform="matrix(-1 0 0 1 528.28 0)" gradientUnits="userSpaceOnUse">
      <stop offset="0" stop-color="#ccf"/>
      <stop offset="1" stop-color="#755cbb"/>
    </linearGradient>
    <linearGradient id="Áåçûìÿííûé_ãðàäèåíò_70-2" x1="259.91" x2="259.91" y1="305.19" y2="281.35" xlink:href="#Áåçûìÿííûé_ãðàäèåíò_70"/>
    <linearGradient id="linear-gradient-3" x1="283.92" x2="283.92" y1="135.11" y2="99.66" gradientTransform="matrix(-1 0 0 1 528.28 0)" gradientUnits="userSpaceOnUse">
      <stop offset="0" stop-color="#00aeea" stop-opacity=".5"/>
      <stop offset="1" stop-color="#093bf9"/>
    </linearGradient>
    <linearGradient id="Áåçûìÿííûé_ãðàäèåíò_70-3" x1="265.67" x2="302.17" y1="116.93" y2="116.93" xlink:href="#Áåçûìÿííûé_ãðàäèåíò_70"/>
    <linearGradient id="linear-gradient-4" x1="274.05" x2="274.05" y1="277.14" y2="97.7" gradientTransform="matrix(-1 0 0 1 528.28 0)" gradientUnits="userSpaceOnUse">
      <stop offset="0" stop-color="#3e99d4"/>
      <stop offset="1" stop-color="#002bff"/>
    </linearGradient>
    <linearGradient id="Áåçûìÿííûé_ãðàäèåíò_70-4" x1="199.13" x2="242.83" y1="165.66" y2="165.66" xlink:href="#Áåçûìÿííûé_ãðàäèåíò_70"/>
    <linearGradient id="linear-gradient-5" x1="198.07" x2="198.07" y1="215.91" y2="132" gradientTransform="matrix(-1 0 0 1 528.28 0)" gradientUnits="userSpaceOnUse">
      <stop offset="0" stop-color="#00ddf1"/>
      <stop offset="1" stop-color="#008ef3"/>
    </linearGradient>
    <linearGradient id="linear-gradient-6" x1="342.07" x2="398.38" y1="191.73" y2="191.73" xlink:href="#linear-gradient-5"/>
    <linearGradient id="Áåçûìÿííûé_ãðàäèåíò_71" x1="179.49" x2="179.49" y1="120.56" y2="98.44" gradientTransform="matrix(-1 0 0 1 528.28 0)" gradientUnits="userSpaceOnUse">
      <stop offset=".02" stop-color="#ffc2a9"/>
      <stop offset="1" stop-color="#ff9595"/>
    </linearGradient>
    <linearGradient id="Áåçûìÿííûé_ãðàäèåíò_48" x1="193.75" x2="193.75" y1="120.42" y2="83.79" gradientTransform="matrix(-1 0 0 1 528.28 0)" gradientUnits="userSpaceOnUse">
      <stop offset="0" stop-color="#ffeadb"/>
      <stop offset=".99" stop-color="#c27cb6"/>
    </linearGradient>
    <linearGradient id="Áåçûìÿííûé_ãðàäèåíò_71-2" x1="192.21" x2="192.21" y1="144.95" y2="88.49" xlink:href="#Áåçûìÿííûé_ãðàäèåíò_71"/>
    <linearGradient id="Áåçûìÿííûé_ãðàäèåíò_73" x1="182.11" x2="199.87" y1="136.14" y2="136.14" gradientTransform="matrix(-1 0 0 1 528.28 0)" gradientUnits="userSpaceOnUse">
      <stop offset=".02" stop-color="#d1a1d6"/>
      <stop offset=".99" stop-color="#bd89c4"/>
    </linearGradient>
    <linearGradient id="Áåçûìÿííûé_ãðàäèåíò_71-3" x1="399.54" x2="399.54" y1="179.52" y2="104.63" xlink:href="#Áåçûìÿííûé_ãðàäèåíò_71"/>
    <linearGradient id="Áåçûìÿííûé_ãðàäèåíò_48-2" x1="408.46" x2="408.46" y1="154.8" y2="117.29" xlink:href="#Áåçûìÿííûé_ãðàäèåíò_48"/>
    <linearGradient id="Áåçûìÿííûé_ãðàäèåíò_64" x1="415.86" x2="415.86" y1="142.21" y2="125.39" gradientTransform="matrix(-1 0 0 1 528.28 0)" gradientUnits="userSpaceOnUse">
      <stop offset="0" stop-color="#ffb0b0"/>
      <stop offset=".98" stop-color="#ffc2a9"/>
    </linearGradient>
    <linearGradient id="Áåçûìÿííûé_ãðàäèåíò_64-2" x1="425.61" x2="425.61" y1="144.8" y2="135.58" xlink:href="#Áåçûìÿííûé_ãðàäèåíò_64"/>
    <linearGradient id="Áåçûìÿííûé_ãðàäèåíò_73-2" x1="386.17" x2="403.32" y1="163.17" y2="163.17" xlink:href="#Áåçûìÿííûé_ãðàäèåíò_73"/>
    <linearGradient id="Áåçûìÿííûé_ãðàäèåíò_70-5" x1="362.28" x2="362.28" y1="222.36" y2="137.85" xlink:href="#Áåçûìÿííûé_ãðàäèåíò_70"/>
    <linearGradient id="Áåçûìÿííûé_ãðàäèåíò_70-6" x1="176.54" x2="317.74" y1="204.98" y2="204.98" xlink:href="#Áåçûìÿííûé_ãðàäèåíò_70"/>
    <linearGradient id="Áåçûìÿííûé_ãðàäèåíò_4" x1="300.85" x2="327.87" y1="181.69" y2="181.69" gradientTransform="matrix(-1 0 0 1 528.28 0)" gradientUnits="userSpaceOnUse">
      <stop offset="0" stop-color="#ccedff"/>
      <stop offset="1" stop-color="#755cbb"/>
    </linearGradient>
    <linearGradient id="Áåçûìÿííûé_ãðàäèåíò_4-2" x1="276.34" x2="316.05" y1="229.1" y2="229.1" xlink:href="#Áåçûìÿííûé_ãðàäèåíò_4"/>
    <linearGradient id="Áåçûìÿííûé_ãðàäèåíò_4-3" x1="278.32" x2="320.74" y1="247.06" y2="247.06" xlink:href="#Áåçûìÿííûé_ãðàäèåíò_4"/>
    <linearGradient id="Áåçûìÿííûé_ãðàäèåíò_4-4" x1="241.67" x2="241.67" y1="202.6" y2="154.99" xlink:href="#Áåçûìÿííûé_ãðàäèåíò_4"/>
    <linearGradient id="Áåçûìÿííûé_ãðàäèåíò_4-5" x1="245.51" x2="245.51" y1="206.61" y2="170.52" xlink:href="#Áåçûìÿííûé_ãðàäèåíò_4"/>
    <linearGradient id="Áåçûìÿííûé_ãðàäèåíò_4-6" x1="188.75" x2="188.75" y1="160.47" y2="133.2" xlink:href="#Áåçûìÿííûé_ãðàäèåíò_4"/>
    <linearGradient id="Áåçûìÿííûé_ãðàäèåíò_4-7" x1="210.53" x2="221.52" y1="136.46" y2="136.46" xlink:href="#Áåçûìÿííûé_ãðàäèåíò_4"/>
    <linearGradient id="Áåçûìÿííûé_ãðàäèåíò_70-7" x1="329.99" x2="329.99" y1="202.6" y2="152.06" xlink:href="#Áåçûìÿííûé_ãðàäèåíò_70"/>
    <linearGradient id="Áåçûìÿííûé_ãðàäèåíò_70-8" x1="386.81" x2="386.81" y1="191.73" y2="165.32" xlink:href="#Áåçûìÿííûé_ãðàäèåíò_70"/>
    <linearGradient id="Áåçûìÿííûé_ãðàäèåíò_70-9" x1="356.86" x2="356.86" y1="190.55" y2="170.36" xlink:href="#Áåçûìÿííûé_ãðàäèåíò_70"/>
    <linearGradient id="Áåçûìÿííûé_ãðàäèåíò_4-8" x1="182.76" x2="182.76" y1="162.21" y2="154.71" xlink:href="#Áåçûìÿííûé_ãðàäèåíò_4"/>
    <linearGradient id="Áåçûìÿííûé_ãðàäèåíò_70-10" x1="202.79" x2="202.79" y1="185.07" y2="144.09" xlink:href="#Áåçûìÿííûé_ãðàäèåíò_70"/>
    <linearGradient id="Áåçûìÿííûé_ãðàäèåíò_4-9" x1="308.21" x2="308.21" y1="156.23" y2="125.39" xlink:href="#Áåçûìÿííûé_ãðàäèåíò_4"/>
    <linearGradient id="Áåçûìÿííûé_ãðàäèåíò_4-10" x1="267.82" x2="267.82" y1="152.06" y2="109.5" xlink:href="#Áåçûìÿííûé_ãðàäèåíò_4"/>
    <linearGradient id="Áåçûìÿííûé_ãðàäèåíò_70-11" x1="258.62" x2="306.6" y1="118.49" y2="118.49" xlink:href="#Áåçûìÿííûé_ãðàäèåíò_70"/>
    <linearGradient id="Áåçûìÿííûé_ãðàäèåíò_70-12" x1="378.49" x2="378.49" y1="188.72" y2="161.95" xlink:href="#Áåçûìÿííûé_ãðàäèåíò_70"/>
    <linearGradient id="Áåçûìÿííûé_ãðàäèåíò_70-13" x1="340.63" x2="340.63" y1="218.92" y2="137.85" xlink:href="#Áåçûìÿííûé_ãðàäèåíò_70"/>
    <linearGradient id="Áåçûìÿííûé_ãðàäèåíò_70-14" x1="253.49" x2="253.49" y1="257" y2="233.76" xlink:href="#Áåçûìÿííûé_ãðàäèåíò_70"/>
    <linearGradient id="Áåçûìÿííûé_ãðàäèåíò_70-15" x1="298.64" x2="298.64" y1="250.62" y2="239.33" xlink:href="#Áåçûìÿííûé_ãðàäèåíò_70"/>
    <linearGradient id="Áåçûìÿííûé_ãðàäèåíò_71-4" x1="298.38" x2="298.38" y1="105.56" y2="28.35" xlink:href="#Áåçûìÿííûé_ãðàäèåíò_71"/>
    <linearGradient id="Áåçûìÿííûé_ãðàäèåíò_71-5" x1="269.36" x2="269.36" y1="74.4" y2="51.64" xlink:href="#Áåçûìÿííûé_ãðàäèåíò_71"/>
    <linearGradient id="Áåçûìÿííûé_ãðàäèåíò_387" x1="308.87" x2="309.83" y1="83.01" y2="78.04" gradientTransform="matrix(-1 0 0 1 528.28 0)" gradientUnits="userSpaceOnUse">
      <stop offset="0" stop-color="#e1616a"/>
      <stop offset="1" stop-color="#ff8883"/>
    </linearGradient>
    <linearGradient id="Áåçûìÿííûé_ãðàäèåíò_48-3" x1="300.26" x2="300.26" y1="78.87" y2="29.13" xlink:href="#Áåçûìÿííûé_ãðàäèåíò_48"/>
    <linearGradient id="Áåçûìÿííûé_ãðàäèåíò_59" x1="297.83" x2="297.83" y1="58.84" y2="48.99" gradientTransform="matrix(-1 0 0 1 528.28 0)" gradientUnits="userSpaceOnUse">
      <stop offset="0" stop-color="#cf6074"/>
      <stop offset="1" stop-color="#f37270"/>
    </linearGradient>
    <linearGradient id="Áåçûìÿííûé_ãðàäèåíò_184" x1="317.49" x2="317.49" y1="61.96" y2="53.39" gradientTransform="matrix(-1 0 0 1 528.28 0)" gradientUnits="userSpaceOnUse">
      <stop offset="0" stop-color="#cf6074"/>
      <stop offset="1" stop-color="#ff817f"/>
    </linearGradient>
    <linearGradient id="Áåçûìÿííûé_ãðàäèåíò_48-4" x1="318.53" x2="318.53" y1="66.95" y2="47.66" xlink:href="#Áåçûìÿííûé_ãðàäèåíò_48"/>
    <linearGradient id="Áåçûìÿííûé_ãðàäèåíò_292" x1="299.18" x2="299.18" y1="106.53" y2="12.89" gradientTransform="matrix(-1 0 0 1 528.28 0)" gradientUnits="userSpaceOnUse">
      <stop offset="0" stop-color="#2e33a0"/>
      <stop offset="1" stop-color="#0665a5"/>
    </linearGradient>
    <linearGradient id="Áåçûìÿííûé_ãðàäèåíò_35" x1="323.77" x2="323.77" y1="47.56" y2="25.96" gradientTransform="matrix(-1 0 0 1 528.28 0)" gradientUnits="userSpaceOnUse">
      <stop offset="0" stop-color="#ffeadb"/>
      <stop offset=".99" stop-color="#8860c7"/>
    </linearGradient>
    <linearGradient id="Áåçûìÿííûé_ãðàäèåíò_52" x1="294.34" x2="294.34" y1="106.53" y2="12.89" gradientTransform="matrix(-1 0 0 1 528.28 0)" gradientUnits="userSpaceOnUse">
      <stop offset="0" stop-color="#ccc2db"/>
      <stop offset=".99" stop-color="#8860c7"/>
    </linearGradient>
    <linearGradient id="Áåçûìÿííûé_ãðàäèåíò_397" x1="300.61" x2="300.61" y1="106.5" y2="102.48" gradientTransform="matrix(-1 0 0 1 528.28 0)" gradientUnits="userSpaceOnUse">
      <stop offset="0" stop-color="#776d7e"/>
      <stop offset="1" stop-color="#9d68c2"/>
    </linearGradient>
    <linearGradient id="Áåçûìÿííûé_ãðàäèåíò_141" x1="312.42" x2="312.42" y1="19.61" y2="16.62" gradientTransform="matrix(-1 0 0 1 528.28 0)" gradientUnits="userSpaceOnUse">
      <stop offset="0" stop-color="#1f77d1"/>
      <stop offset="1" stop-color="#0686c9"/>
    </linearGradient>
    <linearGradient id="Áåçûìÿííûé_ãðàäèåíò_141-2" x1="293.38" x2="293.38" y1="29.45" y2="20.62" xlink:href="#Áåçûìÿííûé_ãðàäèåíò_141"/>
    <linearGradient id="Áåçûìÿííûé_ãðàäèåíò_141-3" x1="325.4" x2="325.4" y1="33.93" y2="25.96" xlink:href="#Áåçûìÿííûé_ãðàäèåíò_141"/>
    <linearGradient id="Áåçûìÿííûé_ãðàäèåíò_285" x1="272.67" x2="262.48" y1="69.01" y2="56.51" gradientTransform="matrix(-1 0 0 1 528.28 0)" gradientUnits="userSpaceOnUse">
      <stop offset="0" stop-color="#ffeadb"/>
      <stop offset=".99" stop-color="#b060f4"/>
    </linearGradient>
    <linearGradient id="Áåçûìÿííûé_ãðàäèåíò_285-2" x1="273.74" x2="268.72" y1="67.4" y2="61.25" xlink:href="#Áåçûìÿííûé_ãðàäèåíò_285"/>
    <linearGradient id="Áåçûìÿííûé_ãðàäèåíò_141-4" x1="292.79" x2="310.05" y1="30.24" y2="30.24" xlink:href="#Áåçûìÿííûé_ãðàäèåíò_141"/>
    <linearGradient id="Áåçûìÿííûé_ãðàäèåíò_141-5" x1="317.14" x2="322.38" y1="81.88" y2="81.88" xlink:href="#Áåçûìÿííûé_ãðàäèåíò_141"/>
    <linearGradient id="Áåçûìÿííûé_ãðàäèåíò_141-6" x1="310.68" x2="316.32" y1="77.99" y2="77.99" xlink:href="#Áåçûìÿííûé_ãðàäèåíò_141"/>
    <linearGradient id="Áåçûìÿííûé_ãðàäèåíò_89" x1="-23.52" x2="153.55" y1="91.2" y2="91.2" gradientTransform="matrix(-1 0 0 1 153.76 0)" gradientUnits="userSpaceOnUse">
      <stop offset="0" stop-color="#9d68c2"/>
      <stop offset="1" stop-color="#aec2ff"/>
    </linearGradient>
    <linearGradient id="Áåçûìÿííûé_ãðàäèåíò_85" x1="12.22" x2="12.22" y1="157.7" y2="104.7" gradientTransform="matrix(-1 0 0 1 153.76 0)" gradientUnits="userSpaceOnUse">
      <stop offset="0" stop-color="#ccedff"/>
      <stop offset="1" stop-color="#9d68c2"/>
    </linearGradient>
    <linearGradient id="Áåçûìÿííûé_ãðàäèåíò_85-2" x1="99.22" x2="99.22" y1="128.7" y2="104.7" gradientTransform="matrix(1 0 0 -1 -44.68 233.4)" xlink:href="#Áåçûìÿííûé_ãðàäèåíò_85"/>
    <linearGradient id="Áåçûìÿííûé_ãðàäèåíò_85-3" x1="127.22" x2="127.22" y1="128.7" y2="104.7" gradientTransform="matrix(1 0 0 -1 -100.68 233.4)" xlink:href="#Áåçûìÿííûé_ãðàäèåíò_85"/>
    <linearGradient id="Áåçûìÿííûé_ãðàäèåíò_85-4" x1="71.22" x2="71.22" y1="128.7" y2="104.7" gradientTransform="matrix(1 0 0 -1 11.32 233.4)" xlink:href="#Áåçûìÿííûé_ãðàäèåíò_85"/>
    <linearGradient id="Áåçûìÿííûé_ãðàäèåíò_25" x1="156.54" x2="156.54" y1="136.7" y2="126.7" gradientUnits="userSpaceOnUse">
      <stop offset="0" stop-color="#8642a0"/>
      <stop offset="1" stop-color="#6456c0"/>
    </linearGradient>
    <linearGradient id="Áåçûìÿííûé_ãðàäèåíò_302" x1="114.54" x2="114.54" y1="110.7" y2="98.7" gradientUnits="userSpaceOnUse">
      <stop offset="0" stop-color="#459fff"/>
      <stop offset="1" stop-color="#a96dff"/>
    </linearGradient>
    <linearGradient id="Áåçûìÿííûé_ãðàäèåíò_85-5" x1="31.22" x2="31.22" y1="174.7" y2="159.7" gradientTransform="matrix(1 0 0 -1 91.32 334.4)" xlink:href="#Áåçûìÿííûé_ãðàäèåíò_85"/>
    <linearGradient id="Áåçûìÿííûé_ãðàäèåíò_85-6" x1="3.22" x2="3.22" y1="174.7" y2="159.7" gradientTransform="matrix(1 0 0 -1 147.32 334.4)" xlink:href="#Áåçûìÿííûé_ãðàäèåíò_85"/>
    <linearGradient id="Áåçûìÿííûé_ãðàäèåíò_322" x1="7.04" x2="7.04" y1="93.7" y2="88.7" gradientUnits="userSpaceOnUse">
      <stop offset="0" stop-color="#b31a8f"/>
      <stop offset="1" stop-color="#fe117e"/>
    </linearGradient>
    <linearGradient id="Áåçûìÿííûé_ãðàäèåíò_65" x1="161.73" x2="161.73" y1="74.94" y2="50.32" gradientUnits="userSpaceOnUse">
      <stop offset="0" stop-color="#d93de3"/>
      <stop offset="1" stop-color="#ff6dba"/>
    </linearGradient>
    <linearGradient id="Áåçûìÿííûé_ãðàäèåíò_14" x1="177.66" x2="177.66" y1="74.72" y2="50.1" gradientUnits="userSpaceOnUse">
      <stop offset="0" stop-color="#a242ea"/>
      <stop offset="1" stop-color="#fe117e"/>
    </linearGradient>
    <linearGradient id="Áåçûìÿííûé_ãðàäèåíò_97" x1="87.25" x2="87.25" y1="245.7" y2="198.7" gradientUnits="userSpaceOnUse">
      <stop offset="0" stop-color="#d906e3"/>
      <stop offset="1" stop-color="#ff6df9"/>
    </linearGradient>
    <linearGradient id="Áåçûìÿííûé_ãðàäèåíò_115" x1="157.95" x2="171.25" y1="333.88" y2="228.03" gradientUnits="userSpaceOnUse">
      <stop offset="0" stop-color="#067eff"/>
      <stop offset="1" stop-color="#3e37a0"/>
    </linearGradient>
    <linearGradient id="Áåçûìÿííûé_ãðàäèåíò_302-2" x1="115.54" x2="115.54" y1="243.2" y2="238.2" xlink:href="#Áåçûìÿííûé_ãðàäèåíò_302"/>
    <linearGradient id="Áåçûìÿííûé_ãðàäèåíò_322-2" x1="124.04" x2="124.04" y1="243.7" y2="238.7" xlink:href="#Áåçûìÿííûé_ãðàäèåíò_322"/>
    <linearGradient id="Áåçûìÿííûé_ãðàäèåíò_25-2" x1="382.54" x2="382.54" y1="208.7" y2="202.7" xlink:href="#Áåçûìÿííûé_ãðàäèåíò_25"/>
    <linearGradient id="Áåçûìÿííûé_ãðàäèåíò_97-2" x1="311.18" x2="311.18" y1="337.7" y2="279.7" xlink:href="#Áåçûìÿííûé_ãðàäèåíò_97"/>
    <linearGradient id="Áåçûìÿííûé_ãðàäèåíò_206" x1="368.86" x2="363.89" y1="233.91" y2="191.21" gradientTransform="rotate(15 202.965 172.04)" gradientUnits="userSpaceOnUse">
      <stop offset="0" stop-color="#1852a0"/>
      <stop offset="1" stop-color="#067ed3"/>
    </linearGradient>
    <linearGradient id="Áåçûìÿííûé_ãðàäèåíò_206-2" x1="364.04" x2="364.04" y1="234.07" y2="190.32" xlink:href="#Áåçûìÿííûé_ãðàäèåíò_206"/>
    <linearGradient id="Áåçûìÿííûé_ãðàäèåíò_107" x1="326.48" x2="323.26" y1="247.97" y2="220.36" gradientTransform="matrix(.94 .33 -.52 1.49 157.86 -204.16)" gradientUnits="userSpaceOnUse">
      <stop offset="0" stop-color="#188dc1"/>
      <stop offset="1" stop-color="#06bfe7"/>
    </linearGradient>
    <linearGradient id="Áåçûìÿííûé_ãðàäèåíò_107-2" x1="376.81" x2="388.29" y1="46.65" y2="4.02" xlink:href="#Áåçûìÿííûé_ãðàäèåíò_107"/>
    <linearGradient id="Áåçûìÿííûé_ãðàäèåíò_206-3" x1="357.42" x2="365.87" y1="41.65" y2="10.26" xlink:href="#Áåçûìÿííûé_ãðàäèåíò_206"/>
    <linearGradient id="Áåçûìÿííûé_ãðàäèåíò_107-3" x1="-198.74" x2="-190.98" y1="71.37" y2="42.53" gradientTransform="matrix(-1 0 0 1 135.74 0)" xlink:href="#Áåçûìÿííûé_ãðàäèåíò_107"/>
    <linearGradient id="Áåçûìÿííûé_ãðàäèåíò_206-4" x1="-212" x2="-206.24" y1="67.98" y2="46.59" gradientTransform="matrix(-1 0 0 1 135.74 0)" xlink:href="#Áåçûìÿííûé_ãðàäèåíò_206"/>
    <linearGradient id="Áåçûìÿííûé_ãðàäèåíò_29" x1="369.2" x2="369.2" y1="328.51" y2="257.33" gradientTransform="matrix(-.91 -.42 -.42 .91 841.16 34.85)" gradientUnits="userSpaceOnUse">
      <stop offset="0" stop-color="#dbccff"/>
      <stop offset="1" stop-color="#d1bbff"/>
    </linearGradient>
    <linearGradient id="Áåçûìÿííûé_ãðàäèåíò_28" x1="369.2" x2="369.2" y1="331.29" y2="260.1" gradientTransform="matrix(-.91 -.42 -.42 .91 841.16 34.85)" gradientUnits="userSpaceOnUse">
      <stop offset="0" stop-color="#b5a6e7"/>
      <stop offset="1" stop-color="#7760bf"/>
    </linearGradient>
    <linearGradient id="Áåçûìÿííûé_ãðàäèåíò_28-2" x1="369.2" x2="369.2" y1="313.59" y2="283.59" xlink:href="#Áåçûìÿííûé_ãðàäèåíò_28"/>
    <linearGradient id="Áåçûìÿííûé_ãðàäèåíò_27" x1="364.94" x2="373.45" y1="284.19" y2="284.19" gradientTransform="matrix(-.91 -.42 -.42 .91 841.16 34.85)" gradientUnits="userSpaceOnUse">
      <stop offset="0" stop-color="#8b8be0"/>
      <stop offset="1" stop-color="#a177b7"/>
    </linearGradient>
    <linearGradient id="Áåçûìÿííûé_ãðàäèåíò_94" x1="369.2" x2="369.2" y1="286.16" y2="281.01" gradientTransform="matrix(-.91 -.42 -.42 .91 841.16 34.85)" gradientUnits="userSpaceOnUse">
      <stop offset="0" stop-color="#fff"/>
      <stop offset="1" stop-color="#a177b7"/>
    </linearGradient>
    <linearGradient id="Áåçûìÿííûé_ãðàäèåíò_95" x1="373.7" x2="373.7" y1="316.66" y2="283.58" gradientTransform="matrix(-.91 -.42 -.42 .91 841.16 34.85)" gradientUnits="userSpaceOnUse">
      <stop offset="0"/>
      <stop offset="1" stop-color="#fff"/>
    </linearGradient>
    <radialGradient id="radial-gradient" cx="249.95" cy="314.86" r="19.24" gradientTransform="matrix(-.66 0 0 1.7 454.42 -221.12)" gradientUnits="userSpaceOnUse">
      <stop offset="0" stop-color="#4b474b"/>
      <stop offset=".18" stop-color="#383538" stop-opacity=".8"/>
      <stop offset=".51" stop-color="#191819" stop-opacity=".47"/>
      <stop offset=".8" stop-color="#070607" stop-opacity=".27"/>
      <stop offset="1" stop-opacity=".2"/>
    </radialGradient>
    <radialGradient id="radial-gradient-2" cx="368.12" cy="309.51" r="19.34" gradientTransform="matrix(.01 -.65 -1.71 0 737.86 554.75)" gradientUnits="userSpaceOnUse">
      <stop offset="0" stop-color="#4b474b"/>
      <stop offset=".14" stop-color="#3d393d" stop-opacity=".85"/>
      <stop offset=".5" stop-color="#1c1a1c" stop-opacity=".49"/>
      <stop offset=".8" stop-color="#070707" stop-opacity=".28"/>
      <stop offset="1" stop-opacity=".2"/>
    </radialGradient>
    <style>
      .cls-110{opacity:.5}.cls-110,.cls-89{mix-blend-mode:multiply}.cls-23{fill:#e28183}.cls-56{fill:#38368e}.cls-59{fill:#ffebed}.cls-60{fill:#7f9ec9}.cls-61{fill:#131163}.cls-62{fill:#fff}.cls-63{fill:#c6659c}.cls-66{fill:#ffbcaf}.cls-78{fill:#34c7ff}.cls-83{fill:#744ca2}.cls-89{fill:#d1d4fb}.cls-90{mix-blend-mode:soft-light}.cls-91{fill:#e0ffff}.cls-100{fill:#953da2}.cls-110{fill-rule:evenodd;fill:#601734}.cls-114{fill:#4f31e0}.cls-121{fill:#e5e2ff}.cls-126{fill:#ebefff}
    </style>
  </defs>
  <g style="isolation:isolate">
    <g id="Layer_2" data-name="Layer 2">
      <g id="Layer_3" data-name="Layer 3">
        <circle cx="234.54" cy="159.7" r="155" fill="#e0f3ff"/>
        <g id="Main">
          <path fill="url(#linear-gradient)" d="M183.54 348.7h46.81a356.77 356.77 0 0 1 14.42-53.06c2.79-1.66 8.24.38 8.24.38l14.23 52.68h46.11c2.29-38.7-18.89-72.6-18.89-72.6a4.73 4.73 0 0 0 .56-2.39 5.53 5.53 0 0 0-1.61-1.87c-1.16-1.06-2.55-2.13-2.55-2.13H210.7l-1.84 1c-1.75 1.06-4.11 2.7-4.11 3.89a5.47 5.47 0 0 0 .81 3v.05c-17.14 32.29-22.02 71.05-22.02 71.05z"/>
          <ellipse cx="288.04" cy="313.7" rx="12.77" ry="32.72" transform="rotate(-13.15 288.139 313.781)" style="mix-blend-mode:screen" fill="url(#radial-gradient)" opacity=".5"/>
          <ellipse cx="211.54" cy="313.7" rx="33" ry="12.63" transform="rotate(-74.61 211.552 313.708)" style="mix-blend-mode:screen" fill="url(#radial-gradient-2)" opacity=".5"/>
          <path fill="url(#Áåçûìÿííûé_ãðàäèåíò_26)" d="M273.25 348.79l.49-.09c-5.47-32.2-16.77-49.2-16.91-49.47l-.05-.08-3.25-3.15-.45.25 3.33 3.25c.59 1.22 11.48 17.76 16.84 49.29z"/>
          <path fill="url(#Áåçûìÿííûé_ãðàäèåíò_26-2)" d="M224.13 348.79c5.35-31.56 17.16-48.35 17.78-49.54l3-3.38-.43-.27-2.99 3.4c-.15.28-12.39 17.53-17.85 49.73z"/>
          <path d="M204.56 274.15a5.51 5.51 0 0 0 .81 3v.05c16.74 3.78 29.48 19.41 29.48 19.41-9.12 17.5-22.33 52.12-22.33 52.12h17.87a356.77 356.77 0 0 1 14.42-53.06c2.79-1.66 8.24.38 8.24.38l14.23 52.68h11.16a245.92 245.92 0 0 0-12.78-48.32c11.6-13.5 28.84-24.28 28.84-24.28l2.05-1.28-1.49-1.11c-7.46 7.15-31.5 16.5-32.25 16.79l30.65-18.66c-1.17-1.06-2.55-2.13-2.55-2.13l-80.41-.5s-.81.41-1.84 1l22 12.09z" style="mix-blend-mode:multiply" fill="url(#linear-gradient-2)" opacity=".76"/>
          <path style="mix-blend-mode:multiply" fill="url(#Áåçûìÿííûé_ãðàäèåíò_70)" d="M244.87 295.87l-9.35-6.06 2.22 6.06 1.63 18.27 5.5-18.27z" opacity=".76"/>
          <path style="mix-blend-mode:multiply" fill="url(#Áåçûìÿííûé_ãðàäèåíò_70-2)" d="M253.08 296.25l9.74-5.51 20.85-9.39-26.55 17.55-1.58 6.29-2.46-8.94z" opacity=".76"/>
          <path fill="#fe9083" d="M226.52 108.38c-.06.43-.11.66-.11.66a56.61 56.61 0 0 0 1.66 5.63 45.8 45.8 0 0 0 6.2 12.07 23.06 23.06 0 0 0 2.73 3.16c14.52-4.56 21.68-18.76 24.43-25.83a.36.36 0 0 0 0-.11c.53-1.34.87-2.41 1.09-3.11.17-.55.25-.86.25-.86l-.18-.37c-.24-.5-.47-1-.69-1.49a70.72 70.72 0 0 1-4-11.13c-.7-2.6-1.08-4.61-1.26-5.68-.09-.55-.13-.85-.13-.85L249.74 84l-23.33 12.33a38.2 38.2 0 0 1 .5 5.92c0 1.24 0 2.36-.09 3.3-.07 1.16-.19 2.07-.28 2.67a.68.68 0 0 1-.02.16z"/>
          <path fill="url(#linear-gradient-3)" d="M233 131.52a20.42 20.42 0 0 0 4.82 3.53l.12.06.14-.07c.51-.31 2.24-1.38 4.57-3.13 6.09-4.59 16.27-13.87 19.18-26.37a31.07 31.07 0 0 0 .69-4.57c0-.41.06-.82.07-1.24a64.34 64.34 0 0 1-5.52 9.88c-4.12 6-10.31 12.61-17.69 12.65-6.4 0-9.67-4.33-11.33-8.36a22.78 22.78 0 0 1-1.35-4.58c-.07-.36-.12-.68-.17-1v-.36c-.06-.45-.08-.71-.08-.71S224 122.49 233 131.52z"/>
          <path d="M233 131.16a20.17 20.17 0 0 0 4.82 3.54h.27c.51-.31 2.24-1.38 4.57-3.14 6.09-4.61 16.27-13.93 19.18-26.49a31.14 31.14 0 0 0 .69-4.59c0-.41.06-.82.07-1.24a64.64 64.64 0 0 1-5.52 9.92s-4 11.1-12.73 16.6c-4.36 2.75-7.66 2.35-10.09.73s-4-4.42-4.93-6.54a15.55 15.55 0 0 1-1.27-5.58v-.9a22.92 22.92 0 0 1-1.35-4.6c-.07-.36-.12-.68-.17-1v-.37c-.06-.45-.08-.71-.08-.71s-2.46 15.3 6.54 24.37z" style="mix-blend-mode:multiply" fill="url(#Áåçûìÿííûé_ãðàäèåíò_70-3)" opacity=".5"/>
          <path fill="url(#linear-gradient-4)" d="M176.69 222.1l.16.08c.81.1 3.35-.46 6.66-3.33 2.78-2.43 6.12-6.5 9.45-13.15 6.66-13.3 8.56-22.18 8.87-23.73v-.24l3.88 6.16c2.64 7.91 7.62 40.68 7.53 42.09s-4.42 8.28-4.33 9.13c.12.85 2.07 2.73 2.63 4.77.37 1.36-2.27 5.66-4.13 8.86v.06a13.31 13.31 0 0 0-1.71 3.58c0 1.51 4.71 8.9 4.71 8.9v4l.07.07.22.2.18.15c1.79 1.42 9.37 6.07 33.05 7.35 28.06 1.51 46.76-7.58 46.76-7.58l-1.41-3.89s1.31-1.13 1.41-1.7-1-1.9-1-1.9 2.82-1.51 2.82-3.41-5.66-7.76-5.47-12.79 4.52-9.47 5.09-12.31-7.34-9.85-7.34-9.85C291.66 201.94 293 173 293 173l1.32-1.52s8.09 18.57 15.43 27.66a68.8 68.8 0 0 0 2.75 3.18 82.43 82.43 0 0 0 6.32 6.15c5.09 4.46 9.71 7.39 10.88 7.16 1.89-.38 9.42-15.35 9.07-30.7-.16-7.3-4.53-15.47-9.07-22-.49-.7-1-1.39-1.47-2.06a104.94 104.94 0 0 0-7.79-9.45l-.9-.95s1-3.35 1.74-6.26a1.6 1.6 0 0 1 .05-.21.36.36 0 0 1 0-.1.17.17 0 0 1 0-.07c.42-1.79.68-3.34.44-3.72-.62-1-4.27-2.15-4.9-2.9s-3.25-13.52-5.26-14.91-5.31-2.3-16.61-6.77l-1.72-.68c-12.66-5-25.09-11.18-25.09-11.18l-4.77-5.9h-1l.7 1.5c-.34 1.52-.73 3-1.18 4.37a.36.36 0 0 1 0 .11c-6.65 20.82-23.77 27.53-23.77 27.53-11.9-8.71-11.67-22.54-11.67-22.54v-1.9l-2.22.66-1.53 3.6s-2.58 4-12.8 8.44a60.86 60.86 0 0 0-5.62 2.85c-9.35 5.27-19.76 13.42-20.55 15.15a5.39 5.39 0 0 0-.28.86v.72c-1.08 4.25-3.3 20.18-5.37 25.86a13 13 0 0 1-4.83 6.52 7.61 7.61 0 0 1-1.93 1c-.15.87-.3 1.74-.44 2.59-4.3 27.23 3.91 45.72 5.76 47.01z"/>
          <path d="M285.45 170.51l8.24 2.77 1.32-1.52s8.15 18.57 15.54 27.66a63.65 63.65 0 0 0 2.77 3.18 81 81 0 0 0 6.36 6.15l6.32-27.07 3.19-20.55a104.89 104.89 0 0 0-7.84-9.45c-.58-.62-.91-1-.91-1s1-3.35 1.75-6.26a1.6 1.6 0 0 1 .05-.21.36.36 0 0 1 0-.1.31.31 0 0 1 0-.07c.42-1.79.68-3.34.44-3.72-.63-1-4.3-2.15-4.93-2.9s-3.28-13.52-5.3-14.91c0 0 1.32 12.25-5.69 27.79l-3.41 4.8-10 8s-3.77 5.1-7.9 7.41z" style="mix-blend-mode:multiply" fill="url(#Áåçûìÿííûé_ãðàäèåíò_70-4)" opacity=".5"/>
          <path fill="url(#linear-gradient-5)" d="M309 192.67c1.77 13.13 21.34 23.24 21.34 23.24 4.36 0 9.23-7.58 13.65-16.93s4.69-36.21 4.92-37.87 2.7-5 2.85-6.4-4-4.36-4-4.36v-.14c.43-.92 2.85-6.11 2.68-7.06s-4.82-3.31-4.82-3.31l-.29 5.11s-10.78-2-14.43-10.39l-.64-2.56-1.8 1.2v11s-.37 1.71-.94 1.71-4.77-2.1-5.65-1.81-1.76 6.17-2.94 6.92-4.3 2.94-4.77 4a19 19 0 0 0-.25 4.15 42.4 42.4 0 0 1-.41 6.94c-.59 2.89-6.27 13.42-4.5 26.56z"/>
          <path fill="url(#linear-gradient-6)" d="M130.3 181.42c.88 1.39 5.3 4.3 6.44 5.44s0 4.87 0 4.87a153.35 153.35 0 0 0 39.88 30.54l.16.08c11.66-7.84 10.66-20.75 6.79-31.63a82.1 82.1 0 0 0-10.32-19.38 24.41 24.41 0 0 0-5.92-1.64 3.59 3.59 0 0 0-2.19.68c-1.42.88-2.62 2.27-3.78 1.69-1.71-.86-5.53-9.89-8.12-10.14-1.81-.17-4.32 1.67-6 2.72-.73.46-1.3.77-1.58.69-1-.25-4.17-4.11-4.43-4.21s-1.72 1-1.72 1l1 1.28a35 35 0 0 1-6.76 15.22l-3.47-5.08s-.87 6.45.02 7.87z"/>
          <path fill="#cb4d7a" d="M226.23 108c0 .13 0 .26.05.39a7.73 7.73 0 0 0 .19.8c1.19 4.41 6 8.92 12.07 6.75 6.63-2.37 19.25-29.1 19.25-29.1l-1.27-5.71-29.95 24.4-.33 2.31z"/>
          <path fill="#ee8183" d="M326 103.49s1.83-10.1 1-17.56a80.83 80.83 0 0 1 .18-15.93 4.06 4.06 0 0 1 3.14 0c1.32.76 4.42 8.46 3 14.65s-.32 21-.32 21h2.09l4.55-6.25 2.21-.63s12.72 12 12.53 19.13l-1.66 6.35-15.67-.54-10.24-11.68z"/>
          <path fill="url(#Áåçûìÿííûé_ãðàäèåíò_71)" d="M341.86 98.44a81.23 81.23 0 0 1-2.12 14.78 3.54 3.54 0 0 0 3.57 3l.8-.9s.57 3.18 3.46 3.41l2.75-2.75-.71 2.28a3.89 3.89 0 0 0 3.6 2.32s4.36-3.41 4.64-7.86l-4.31-3.65v-2.8l-5.11-3.6-.1-2a12 12 0 0 0-6.47-2.23z"/>
          <path d="M326.44 83.79a7.17 7.17 0 0 0 1.86 2.71 16 16 0 0 0 4.24 1.34l.15 17.86h2.08l4.55-6.25s-2.32 3.55-2.45 6.25l1.8.89 1.56-5.36.74 3.86-.73 4.79a12.62 12.62 0 0 0-7.58-2.42l-.73 1.34s8.83 7.31 10.86 11.62c0 0-4.36-5.54-14.3-11.66l-.95-2.93-1.26-7s1.19-10.12.16-15.04z" style="mix-blend-mode:multiply" fill="url(#Áåçûìÿííûé_ãðàäèåíò_48)" opacity=".6"/>
          <path fill="url(#Áåçûìÿííûé_ãðàäèåíò_71-2)" d="M319.39 114.54c.82 2.46 9.41 12.69 10.36 14.91a30 30 0 0 1 1.52 5.11c4.22 9.13 14.43 10.44 14.43 10.44l.47-8.24s5.49-3.16 6.42-4.89l.11-.29a68.8 68.8 0 0 0 0-7.58l-9.56-4c-4.17-5.4-14.31-11.65-14.31-11.65l-.47-2.83c7.28-3.58 6.06-14.41 4.83-15.74a5.4 5.4 0 0 0-3.5-1.32s-2.66 8.71-4.36 12.79-6.76 10.83-5.94 13.29z"/>
          <path d="M348.35 100.62s-1.07 9.94-4.22 14.68a23.13 23.13 0 0 0 4.31-12.65zM353.54 106.25s-1 8-6 12.46c0 0 4.37-2.18 6-9.66z" class="cls-23"/>
          <path d="M328.42 127.33s10.83 10.52 17.75 9.38l-.47 8.29a18.28 18.28 0 0 1-15.07-13 31.55 31.55 0 0 0-2.21-4.67z" style="mix-blend-mode:multiply" fill="url(#Áåçûìÿííûé_ãðàäèåíò_73)" opacity=".91"/>
          <path fill="url(#Áåçûìÿííûé_ãðàäèåíò_71-3)" d="M99.62 142.11s9.87 18 21.42 23.59H125l9.12 13.82s5.89-3.7 6.32-15.85a11 11 0 0 1-2.56-4.58s3.25-2.56 4.13-4.44 1.19-7.52 1.82-9.84 6-7.14 7.14-7.76 6.57-1 6.57-1 .76-1.94 0-2.87-9.14-4.21-13.71-1.07a20.46 20.46 0 0 1-.82 3.64c-.5 1.25-4.51 5.69-5.13 5.69s-3.33-2.25-4.52-4a177.33 177.33 0 0 1-8.67-19.16.5.5 0 0 0 0-.13c0-.07 0-.14-.06-.2a.93.93 0 0 1 0-.13c-1.13-3.82-7.7-11.15-11.21-13.15a2.06 2.06 0 0 0-2.31 1.5s2.81 8 5.76 12.78c.49.81 1 1.75 1.59 2.76 2.5 4.61 5.33 10.65 5.74 11.54l.05.11-1.57.8-4.23-4L114 126l-10 10.52 1 1.25 3.12 4-1.58.28-3.67-4z"/>
          <path d="M101.71 145.15l3.18 4.67s17.45-13.46 21.24-14.6 5.18-.38 5.18-.38l3.91 5s-7.2 6.38-7.83 15c0 0 2.4-10.86 10.55-14.15-.63 0-3.35-2.27-4.55-4a178.56 178.56 0 0 1-8.74-19.32 5 5 0 0 1-.16 3.41c-.86 1.59-5.92.09-6.22 0l5.8 11.63v.11l-1.58.81-4.27-4.05 2.14 5-15.58 2.75 3.14 4-1.59.29z" style="mix-blend-mode:multiply" fill="url(#Áåçûìÿííûé_ãðàäèåíò_48-2)" opacity=".6"/>
          <path fill="url(#Áåçûìÿííûé_ãðàäèåíò_64)" d="M113.88 125.41s-3-.45-5 3.47l.44 1.26s-3 .58-5.81 5.37a16.18 16.18 0 0 0 8.78 6.7s2.9-.82 3.41-3.29l-.57-1.58 2.27 1.71s2.72.82 3.92-3.22z"/>
          <path fill="url(#Áåçûìÿííûé_ãðàäèåíò_64-2)" d="M98.47 140.38a4.67 4.67 0 0 1 2.46-4.8l6 6.63a3.1 3.1 0 0 1-2.78 2.59s-4.15-1.39-5.68-4.42z"/>
          <path d="M142.11 154.27A44.46 44.46 0 0 1 125 165.41l4.39 6.67 9.18-11.65-.59-1.69s3.63-2.74 4.13-4.47z" style="mix-blend-mode:multiply" fill="url(#Áåçûìÿííûé_ãðàäèåíò_73-2)" opacity=".91"/>
          <path d="M109.33 130.14s2.9 4.8 5.81 7.2l.57 1.58s-5.64-3.8-7.72-8.2a3.75 3.75 0 0 1 1.34-.58z" class="cls-23"/>
          <path d="M130.32 181.42c.88 1.39 5.3 4.3 6.44 5.44s0 4.87 0 4.87a153.35 153.35 0 0 0 39.88 30.54l.16.08c1.52.19 8.91-1.89 16.3-16.67 6.7-13.39 8.62-22.33 8.93-23.89v-.24l-1.63-2.21-2.4-27.28-1.7 5.49c-6.44-7.77-12.51-19.7-12.51-19.7l-.27.86c-1.09 4.28-3.33 20.31-5.41 26a13.1 13.1 0 0 1-4.86 6.56c5.93 5.41 8.87 13.19 10.32 19.38a53.68 53.68 0 0 1 1.42 10 67.43 67.43 0 0 0-6.82-17 36.5 36.5 0 0 0-7.33-8.85 58.85 58.85 0 0 0-5.72-4.58c-1.42.88-2.62 2.27-3.78 1.69 7.8 11.71 7.61 34.89.28 30.47s-9-13.8-9-13.8c1.73-11.43 1.21-24.32-.18-26.77-1.69.06-6.52 3.45-6.8 3.37a39.6 39.6 0 0 1-5.88 22.43l-4.17-6.45a40 40 0 0 0 5.62-20.19c-.25-.11-1.72 1-1.72 1l1 1.28a35 35 0 0 1-6.76 15.22l-3.47-5.08s-.83 6.61.06 8.03z" style="mix-blend-mode:multiply" fill="url(#Áåçûìÿííûé_ãðàäèåíò_70-5)" opacity=".5"/>
          <path d="M210.54 265.19v4l.07.07.22.2.18.15c1.8 1.42 9.42 6.07 33.24 7.35 28.22 1.51 47-7.58 47-7.58l-1.41-3.89s1.31-1.13 1.41-1.7-1-1.9-1-1.9 2.83-1.51 2.83-3.41c0-1.71-4.63-6.66-5.38-11.31a6.76 6.76 0 0 1-.11-1.48c.19-5 4.5-9.43 5.1-12.27.57-2.84-7.38-9.85-7.38-9.85 6.81-21.6 8.14-50.59 8.14-50.59l1.32-1.52s8.14 18.57 15.52 27.66 18.17 16.87 20.06 16.49c4.36 0 9.22-7.58 13.64-16.93s4.68-36.21 4.91-37.87 2.7-5 2.85-6.4c-4.74 8.15-12.28 5.75-12.28 5.75 5.47.12 8.3-10.11 8.3-10.11v-.14l2.67-7c-.3.34-6.54 7.33-12.58 3s-9.37-13-9.37-13v11s-.37 1.71-.94 1.71a134.15 134.15 0 0 0 2.74 17.29c2.86 13.09 6.71 25.73 6.71 25.73s-10.43-5.64-14.1-20.08a60.74 60.74 0 0 1-1.9-17.24 43.22 43.22 0 0 1 .84-7.21 1.6 1.6 0 0 1 .05-.21.36.36 0 0 1 0-.1.43.43 0 0 1 0-.05l-1 2.14-1.89 4.76c-2.22 18.48 2.37 46.33 2.37 46.33-6.69-8.34-8.08-26.78-7.79-31.26.13-2.14.3-4.78.41-6.94.15-2.36.25-4.15.25-4.15l-13.7 8.18 2.53-8-10 8s-9 10.8-18.17 12.06-43 .51-43 .51 29.4 1.89 38 4.42 10.22 5.43 10.22 5.43c-6.21 31.59-40.54 42.24-41.61 42.56 31.15-4.68 45.64-31.19 45.64-31.19s.51 14.91-1.89 20.59-16.53 19.58-34.7 22.48a41.71 41.71 0 0 1-4.52.46c-15.33.72-28-7.12-29.31-8l-.11-.07v.05c.49.75 6.77 9.59 32.14 10.56 1.54.06 3 0 4.5 0 23.51-1 35.49-16.67 35.49-16.67s8.7 4.68 3.15 11.62l-.18.22c-1.64 1.89-5.25 4.2-9.51 6.58l-.35.2c-5.16 2.85-11.2 5.79-15.87 8.22h-.07a59.23 59.23 0 0 0-6.52 3.73c-1.32 1-1.59 1.58-.3 1.73 6.57.76 31.42-4.67 32.43-3.16s-1.23 5.43-1.23 5.43c-22.82 11.32-71.63 5.74-73.17 5.57 40.85 10.47 74.28-2.79 74.28-2.79l-1.11 3.92a146 146 0 0 1-39.65 6.82c-21.45.5-34.83-5-34.83-5z" style="mix-blend-mode:multiply" fill="url(#Áåçûìÿííûé_ãðàäèåíò_70-6)" opacity=".5"/>
          <path d="M227.43 175.62s-16.26.88-27 3.72l5.54 8.41a73.88 73.88 0 0 1 21.46-12.13z" style="mix-blend-mode:multiply" fill="url(#Áåçûìÿííûé_ãðàäèåíò_4)" opacity=".5"/>
          <path d="M212.23 220.46s10.15 8.46 20.13 12.38a67.51 67.51 0 0 0 19.58 4.29s-5.74 1.71-19.85-.57-19-9.91-19-9.91z" style="mix-blend-mode:multiply" fill="url(#Áåçûìÿííûé_ãðàäèåíò_4-2)" opacity=".5"/>
          <path d="M207.54 253.06c18.78 4.85 42.62-2.11 42.42-3s-6.53.38-21.21-2.56c-14.23-2.85-19.39-7.91-19.7-8.22.12.86 2.08 2.75 2.64 4.81.38 1.42-2.28 5.74-4.15 8.97z" style="mix-blend-mode:multiply" fill="url(#Áåçûìÿííûé_ãðàäèåíò_4-3)" opacity=".5"/>
          <path d="M258.69 178.16c16 1.63 20.36 6.1 20.36 6.1 4.51.57 14.64-11 14.64-11l1.32-1.52s8.15 18.57 15.54 27.66a63.65 63.65 0 0 0 2.77 3.18l-1.05-2.36s-1.72-.82-2.22-9.85 3.79-22.48 3.82-24.31.66-11.09.66-11.09l-13.71 8.18 2.53-8-10 8s-3.91 5.88-13.78 10.78c-9.29 4.65-19.73 4.28-20.88 4.23z" style="mix-blend-mode:multiply" fill="url(#Áåçûìÿííûé_ãðàäèåíò_4-4)" opacity=".5"/>
          <path d="M295 171.76l-9.56-1.24a71.87 71.87 0 0 1-11.44 5.65l6.39 9.42s-2.54 13.44-9.82 21c0 0 19.32-10.74 22-19.76z" style="mix-blend-mode:multiply" fill="url(#Áåçûìÿííûé_ãðàäèåíò_4-5)" opacity=".5"/>
          <path d="M350.51 143.16l-2.73 7.19s-2.78 9.71-8.31 10.11-10.93-16.27-10.93-16.27v-11s5.88 12.61 12.23 14 9.74-4.03 9.74-4.03z" style="mix-blend-mode:multiply" fill="url(#Áåçûìÿííûé_ãðàäèåíò_4-6)" opacity=".5"/>
          <path d="M317.75 137.47s-4.93 9.85-11 12.88c0 0 7.21-17.49 5.69-27.79.01 0 2.66 1.65 5.31 14.91z" style="mix-blend-mode:multiply" fill="url(#Áåçûìÿííûé_ãðàäèåíò_4-7)" opacity=".5"/>
          <path d="M198 152.06l-1.7 5.49-1.73 45a108.67 108.67 0 0 0 7.43-20.76l-1.59-2.45s-2.67-16.98-2.41-27.28z" style="mix-blend-mode:multiply" fill="url(#Áåçûìÿííûé_ãðàäèåíò_70-7)" opacity=".76"/>
          <path d="M145.65 165.32s1 22.13-8.44 24.05l-.47 2.36s12.17-.45 8.91-26.41z" style="mix-blend-mode:multiply" fill="url(#Áåçûìÿííûé_ãðàäèåíò_70-8)" opacity=".5"/>
          <path d="M161.34 172.05s.36.8 3.78-1.69c0 0 11.83 8.38 16.39 20.19 0 0-7.29-10.85-11.18-12s-4.81 3.16-4.81 3.16-1.52-6.13-4.18-9.66z" style="mix-blend-mode:multiply" fill="url(#Áåçûìÿííûé_ãðàäèåíò_70-9)" opacity=".3"/>
          <path d="M352.05 154.71s-4.55 8.39-13.08 5.76c0 0 5.11 3.45 10.23.64 0 0 3.18-5.45 2.85-6.4z" style="mix-blend-mode:multiply" fill="url(#Áåçûìÿííûé_ãðàäèåíò_4-8)" opacity=".5"/>
          <path d="M322.24 144.09s-6.26 23.4 10.07 41a27.1 27.1 0 0 1-13-18 38.79 38.79 0 0 1 2.93-23z" style="mix-blend-mode:multiply" fill="url(#Áåçûìÿííûé_ãðàäèåíò_70-10)" opacity=".5"/>
          <path d="M210.1 125.39s.7 10.56 5.77 18.14 15.1 12.7 15.1 12.7-12.6-4.64-18.38-11.18-2.49-19.66-2.49-19.66z" style="mix-blend-mode:multiply" fill="url(#Áåçûìÿííûé_ãðàäèåíò_4-9)" opacity=".5"/>
          <path d="M274.55 109.5a66.82 66.82 0 0 1-2.84 17.83c-2.84 9-27.51 24.73-27.51 24.73s25.42-10.56 30.35-20.06 0-22.5 0-22.5z" style="mix-blend-mode:multiply" fill="url(#Áåçûìÿííûé_ãðàäèåíò_4-10)" opacity=".5"/>
          <path d="M221.69 111.08c.8 9.3 3.74 15.78 6.87 20.15 4.32 6 9 8.05 9 8.05a54.16 54.16 0 0 0 12.2-7.09 59.67 59.67 0 0 0 19.92-28.5A66.62 66.62 0 0 1 247.3 132a45.35 45.35 0 0 1-9.76 5.52v-4.65a33.07 33.07 0 0 0 3.22-1.36c12.24-5.95 18.67-18.35 21.68-26.37a56.87 56.87 0 0 0 2.26-7.39h-2.2l.72 1.5c-.35 1.52-.75 3-1.21 4.37a.36.36 0 0 1 0 .11 45.47 45.47 0 0 1-24.46 27.53 29.08 29.08 0 0 1-12-22.54v-1.9l-2.29.66z" style="mix-blend-mode:multiply" fill="url(#Áåçûìÿííûé_ãðàäèåíò_70-11)" opacity=".5"/>
          <path d="M152.45 162s3.2 10.48.17 26.77c0 0-1.51-20.65-2.65-22.45s-4.32-1-4.32-1a74.72 74.72 0 0 1 6.8-3.32z" style="mix-blend-mode:multiply" fill="url(#Áåçûìÿííûé_ãðàäèåíò_70-12)" opacity=".3"/>
          <path d="M183.59 218.92c2.8-2.45 6.16-6.54 9.51-13.24 6.7-13.39 8.62-22.33 8.93-23.89l-1.59-2.45-2.13-20.6-2-1.19a84.28 84.28 0 0 1-12.51-19.7 5.61 5.61 0 0 0-.27.86c-1.09 4.28-3.33 20.31-5.41 26a13.1 13.1 0 0 1-4.86 6.56s12.31 18.26 12.91 31.29c.54 11.9-2.1 15.76-2.58 16.36z" style="mix-blend-mode:multiply" fill="url(#Áåçûìÿííûé_ãðàäèåíò_70-13)" opacity=".5"/>
          <path d="M256.66 257s22.19-3.64 31.25-9.48a6.76 6.76 0 0 1-.11-1.48c.19-5 4.51-9.43 5.11-12.27-.1.27-.75 1.77-3.9 4.47a66.94 66.94 0 0 1-9.52 6.58l-.35.2c-6.4 3.78-11.91 6.34-15.89 8.22h-.07c-3.58 1.68-5.9 2.79-6.52 3.73z" style="mix-blend-mode:multiply" fill="url(#Áåçûìÿííûé_ãðàäèåíò_70-14)" opacity=".5"/>
          <path d="M209.19 239.33c.12.86 2.08 2.75 2.64 4.81 0 0 8.14 8.62 38.27 6-.2-.85-6.53.38-21.21-2.56-14.23-2.88-19.39-7.94-19.7-8.25z" style="mix-blend-mode:multiply" fill="url(#Áåçûìÿííûé_ãðàäèåíò_70-15)" opacity=".5"/>
          <path d="M204.64 122l19 6.14 5.55 2.58 3.61 1h4.57l3.14.25 1.66.13 4.74.37 2.38.19 23.41-8.47 4.18-1.51 19.26-7-1.76-.69c-12.92-5.12-25.59-11.33-25.59-11.33l-4.87-6h-2.57a71.13 71.13 0 0 1-3.93-11l-1.25-5.62c-.09-.54-.13-.83-.13-.83l-6.69 3.53-22.56 18c0 1.23 0 2.34-.09 3.27l-.32 2.27c-.06-.44-.08-.7-.08-.7l-2.18.65-1.48 3.55s-2.52 3.91-12.5 8.3a60.81 60.81 0 0 0-5.5 2.92z" style="mix-blend-mode:multiply" fill="#7a4ac0" opacity=".5"/>
          <path fill="url(#Áåçûìÿííûé_ãðàäèåíò_71-4)" d="M218.61 105.13a31.37 31.37 0 0 0 18.89-2.78c9.91-4.8 18.24-18.95 18.75-22.48s-3.79-12.76-3.79-20 3.53-19.58-2.4-26.28-33.22-7.7-42.07.89c0 0-2.74 6.88-2.74 10.77a28.33 28.33 0 0 0 .42 3.91c.08.59.19 1.22.29 1.87.79 4.71 1.88 10.46 1.37 13a12.64 12.64 0 0 1-.79 2.46c-1.09 2.52-2.71 4.53-3 6.71-.38 2.88 3.46 23.09 15.07 31.93z"/>
          <path fill="url(#Áåçûìÿííûé_ãðàäèåíò_71-5)" d="M252.77 57.88s2.45-6.15 8.61-6.24c0 0 3.6 1.42 4.17 4.17 0 0-1.33 9.94-2.84 14.59s-7.08 4-7.08 4a23.57 23.57 0 0 1-2.86-16.52z"/>
          <path fill="url(#Áåçûìÿííûé_ãðàäèåíò_387)" d="M229.11 78.14a5.64 5.64 0 0 0-2.94.5c-.88.66-4.1 3.79-8.18 4.64s-6.8-2.62-7.67-2.79-1.82 1.05-1.82 1.05a3.42 3.42 0 0 1 2.5-2.07s.86 3.27 6.76 2.15 8.42-3.74 8.42-3.74l.3-.54a15.89 15.89 0 0 1 2.63.8z"/>
          <path d="M237.82 47.21l-.08-.64S231.85 36.24 220.2 36s-14.29 7-14.29 7l-2.16-3.27 4.92-10 34.24-.57 8.33 6.73 1.06 16.47-3.71 21.73-9 4.81-2.59-2.29c.94-7.28 6.35-13.93 6.35-13.93l-3.95-2.74s-10.13 4.91-16 3.44c0 0-4.41-12.86-4.15-22.38.04 0 15.05 2.22 18.57 6.21z" style="mix-blend-mode:multiply" fill="url(#Áåçûìÿííûé_ãðàäèåíò_48-3)" opacity=".6"/>
          <path d="M238.34 48.31s-.57-3.73-6.85-5.22c-7-1.65-12.69-3.06-12.69-3.06s1.24 4.09 3.57 5.62c0 0 7.41-.27 11.16.58s4.81 2.08 4.81 2.08zM205.91 43.31s3.56 2.74 6 9.28c0 0-2.32-3-4.45-3a1.22 1.22 0 0 0-1.23 1.48 13.69 13.69 0 0 1-.32-7.76z" class="cls-56"/>
          <path fill="url(#Áåçûìÿííûé_ãðàäèåíò_59)" d="M236 58.84s-.39-7.84-8.06-9.84a16 16 0 0 0-3 7.57s4.06-.76 11.06 2.27z"/>
          <path fill="url(#Áåçûìÿííûé_ãðàäèåíò_184)" d="M214 62s-.62-6.26-4.21-8.57c0 0-2.45 1.84-2.2 7.08.01-.04 2.16-.82 6.41 1.49z"/>
          <path d="M236 58.84s-2.49 3.06-9.47 3.66a10.87 10.87 0 0 1-1.2-6s6.4-.6 10.67 2.34zM213.54 62v.92s-1.07 2.24-4.92 2.62a10.63 10.63 0 0 1-1.35-5.07s2.45-.65 6.27 1.53z" class="cls-59"/>
          <path d="M228.53 56.35a8.67 8.67 0 0 1 1.61 5.55 25.62 25.62 0 0 1-3.62.6 9.36 9.36 0 0 1-1.2-6 9.65 9.65 0 0 1 3.21-.15zM210.36 60.54s1 1.07 1.19 4.36a7.52 7.52 0 0 1-2.46.6 9.08 9.08 0 0 1-1.35-5.07 4.44 4.44 0 0 1 2.62.11z" class="cls-60"/>
          <path d="M229.11 62.14s.63-4.25-1.8-5.88l-2 .26a8.5 8.5 0 0 0 1.2 6s1.99-.24 2.6-.38zM209.48 60.35a18.29 18.29 0 0 1 1.32 4.83 5.65 5.65 0 0 1-1.71.32 8.27 8.27 0 0 1-1.35-5.07 4 4 0 0 1 1.74-.08z" class="cls-56"/>
          <path d="M236 58.84s-4.64-2.7-12.55-1.16l1.47-1.12A13.22 13.22 0 0 1 236 58.84zM214 62a12.57 12.57 0 0 0-8-1l1.79-1.32s2.86-.42 6.21 2.32z" class="cls-61"/>
          <path d="M231 58.84a2.74 2.74 0 0 0-2.4.87 2.18 2.18 0 0 0 2.4-.87zM212.31 62.5s-2-.38-2.67.52c0-.02 1.06.73 2.67-.52z" class="cls-62"/>
          <path d="M235.52 59.3a18.22 18.22 0 0 1-9.38 4.42l-.14-2.11.53.89s5.54-.33 8.99-3.2zM214 62.88s-.64 2.31-5.34 3.35l.15-1.13.27.4s3.35-.42 4.92-2.62z" class="cls-63"/>
          <path fill="#cb5f7d" d="M223.44 72.27a16.67 16.67 0 0 0-5 0c-3.23.38-6.85 1.26-8.83 0 0 0 2.63 2.63 4.91 3s5.75-1.6 5.75-1.6h1.51a4.19 4.19 0 0 0 1.66-1.4z"/>
          <path fill="#9f4a8b" d="M221.59 73.56a2.39 2.39 0 0 0-1.45-.38c-.66.12-1.34 1.09-1.34 1.09a6.61 6.61 0 0 1 2.79-.71z"/>
          <path d="M209.64 72.1c-.84-.82 3.52-8.58 5.6-8.87s4 8.7 4 8.7l-5.71.79c-2.77.37-3.89-.62-3.89-.62z" class="cls-66"/>
          <path d="M206.29 47.66c1.18-.15 5.35 4.92 5.35 4.92s2.65 8.21 2.13 10.64-7 3.73-7 3.73l-.27-.43a12.64 12.64 0 0 0 .79-2.46c.51-2.52-.58-8.27-1.37-13a9.67 9.67 0 0 1-.29-1.87c.01-.75.12-1.47.66-1.53z" style="mix-blend-mode:multiply" fill="url(#Áåçûìÿííûé_ãðàäèåíò_48-4)" opacity=".6"/>
          <path fill="url(#Áåçûìÿííûé_ãðàäèåíò_292)" d="M204.47 78.79c.14.94 3.35 21.16 12.72 27.27s8.47 2.09 21.35-2.71c0 0 14.48-8.29 18-22.21a10.91 10.91 0 0 0-.9-6.79s-2.43-1-3.54-7.41a16.13 16.13 0 0 1 2.52-12 23.73 23.73 0 0 1 .61-8.21c1.14-4.36 3.29-8.59 2.34-11.68s-8.87-5.06-12.47-8a15.68 15.68 0 0 1-1.59-1.49l-.06-.06c-.47-.5-.86-1-1.24-1.47l-.39-.47-.37-.44a13.87 13.87 0 0 0-5.13-3.72c-5.48-2.54-9.35-2.93-13.31-6.48h-.05a17.22 17.22 0 0 0 1.14 6.72s-12.13-2.74-15-2.74-3.8 9.1-3.8 9.1a45.38 45.38 0 0 0-4.82 8c-.67 1.69 5.2 13.63 5.2 13.63a17.42 17.42 0 0 1 2.94-10.89l1.33 1.23s.05-.12.16-.32c.55-1 2.5-4.21 5.9-5.08 0 0 0 .66 10.71-.48s15.06-1.7 17.62.76 1.6 8.15-.77 10.15c0 0 6.54 6.92 6.35 16.68-.18 9.39-7.27 16.36-10.28 17.53a2.67 2.67 0 0 1-.33.12c-2.78.76-4.18-4.23-20.53-2.08-11.55 1.51-10.73 3-12.06 5.74-.35.75-2.09-1.99-2.25-2.2zm3.26 6.13c-.08-4.3 3-5.69 3.54-5.43s2.27 1.12 7 .81a14.8 14.8 0 0 0 7.89-3s6.11.63 7.85 5.56-6.33 8.21-7.85 8.08-5.3-4.42-5.3-4.42-4.11-.31-4.87.44-1.23 6.51-3.5 6.89-4.71-5.94-4.76-8.93z"/>
          <path fill="#d2726c" d="M213.09 65s-4.09 5.07-3.7 7c.43 2.09 5.16 3.2 5.16 3.2s-3.79-1.3-4.57-3.2a24.93 24.93 0 0 1 3.11-7z"/>
          <path d="M205.67 47.56a17.42 17.42 0 0 1 2.94-10.89A29.09 29.09 0 0 1 205.3 26a36.71 36.71 0 0 0-1.54 7.1l-3.28.86c-.68 1.66 5.19 13.6 5.19 13.6z" style="mix-blend-mode:multiply" fill="url(#Áåçûìÿííûé_ãðàäèåíò_35)" opacity=".6"/>
          <path d="M210.1 37.58c.55-1 2.5-4.21 5.9-5.08 0 0 0 .66 10.71-.48s15.06-1.7 17.62.76 1.61 8.22-.76 10.22c0 0 6.54 6.92 6.35 16.68-.18 9.39-7.27 16.36-10.28 17.53l.14 1s-.53 21.5-5.76 23.21-16.02.87-17.02 1.88.14 2.61.24 2.76 8.47 2.09 21.35-2.71c0 0 14.48-8.29 18-22.21a10.91 10.91 0 0 0-.9-6.79s-2.43-1-3.54-7.41a16.13 16.13 0 0 1 2.52-12 23.73 23.73 0 0 1 .61-8.21c1.14-4.36 3.29-8.59 2.34-11.68a13.64 13.64 0 0 1-10-2.21s-1.06-1.47-5.75-2.23-23.54 1.14-23.54 1.14a16.2 16.2 0 0 1 5.87-2.61c3.76-1 16.6.16 18 .27-1.47-.26-16-2.76-17.69-2.26s-8.06 3.41-8.06 3.41c.57-2.89 6.21-9.85 6.21-9.85A88.48 88.48 0 0 1 235.71 22a17 17 0 0 1 7.7 3.54l-1.24-1.47-.39-.47-.37-.44-1.82-.31-9.14-3.69c-3.07-1.64-7-5.7-7.48-6.2h-.05a17.22 17.22 0 0 0 1.14 6.72c-7.72-.95-10.33-.47-10.33-.47-3.51 4.9-3.63 18.37-3.63 18.37z" style="mix-blend-mode:multiply" fill="url(#Áåçûìÿííûé_ãðàäèåíò_52)" opacity=".6"/>
          <path d="M238.55 103.36a48.2 48.2 0 0 0-11.88-.83c-7.14.29-11.24.32-9.47 3.54 0 0 8.97 2.03 21.35-2.71z" style="mix-blend-mode:multiply" fill="url(#Áåçûìÿííûé_ãðàäèåíò_397)" opacity=".5"/>
          <path fill="url(#Áåçûìÿííûé_ãðàäèåíò_141)" d="M213.73 19.14s-4.34-1.69-6.06-1.41a3.36 3.36 0 0 1 1.39-1.1c.71-.19 15 3 15 3s-8.91-1.05-10.33-.49z"/>
          <path fill="url(#Áåçûìÿííûé_ãðàäèåíò_141-2)" d="M222.54 20.75s.34 4.73 1.85 6.44l17.69 2.26 5.19-.91a13.08 13.08 0 0 1-4.22-3.44c-2.2-2.57-13.74-5.1-20.51-4.35z"/>
          <path fill="url(#Áåçûìÿííûé_ãðàäèåíò_141-3)" d="M205.3 26a39.82 39.82 0 0 0-1.55 7.11l-3.28.86A23.56 23.56 0 0 1 205.3 26z"/>
          <path d="M253.5 66.23s1.25-6 4.29-8.92a7.17 7.17 0 0 1 6.53-2s-.95 11.07-1.94 13.77-2.51 3.41-2.51 3.41a8.52 8.52 0 0 0 2.41-5.49c.29-3.66.38-8.82-.43-9.44s-4.06 1.79-4.06 1.79a10.83 10.83 0 0 1 1.65 4.52c.61 3.26-1.66 5.63-2.51 5.58s.05-3.77-.1-4.85-2.03-.88-3.33 1.63z" style="mix-blend-mode:multiply" fill="url(#Áåçûìÿííûé_ãðàäèåíò_285)" opacity=".8"/>
          <path d="M256.54 58.81a7.45 7.45 0 0 1 3 6.67c-.36 4.49-2.92 4.29-2.93 3.35s.49-3.36.23-4.74-2.47-.75-2.47-.75a32.67 32.67 0 0 1 2.17-4.53z" style="mix-blend-mode:multiply" fill="url(#Áåçûìÿííûé_ãðàäèåíò_285-2)" opacity=".8"/>
          <path d="M204.47 78.79s4.14 18.88 12.73 27.28c0 0-9.8-3.85-12.73-27.28zM209.06 16.63s-2.18 1.7-2.59 7.6 2.14 12.44 2.14 12.44A23.66 23.66 0 0 1 205 26.41c-.3-5.41 2.33-9.1 4.06-9.78z" class="cls-78"/>
          <path fill="url(#Áåçûìÿííûé_ãðàäèåíò_141-4)" d="M235.5 29a50.47 50.47 0 0 1-10.59 2.21l-6.68.6s2.22-2.16 7-2.81a48.08 48.08 0 0 1 10.27 0z"/>
          <path fill="url(#Áåçûìÿííûé_ãðàäèåíò_141-5)" d="M211.09 79.21s-2.41 0-3.36 3a25.24 25.24 0 0 0-1 4.5l-.86-3.32s1.12-4.21 2.28-5.16c.84-.68 2.28-1.38 3-1.21z"/>
          <path fill="url(#Áåçûìÿííûé_ãðàäèåíò_141-6)" d="M217.61 76.18l-.41 3.6a13 13 0 0 1-4.89-.57L212 77a26.89 26.89 0 0 1 5.61-.82z"/>
          <path d="M204.18 122.7s-17.18 12.59-19.46 16.91-3.14 17.91-6.17 23.78c0 0 2.07-9.61 3.52-17.14s1.1-7.64 1.91-9.49 13.67-10.76 20.2-14.06zM207.27 192.75s8.3 35.54 7.92 37.94-5.75 7.3-6 8.64c0 0 4.11 5.51 3.92 6.72s-7.2 8.93-7 11.31c.05.69 4.6 8.19 4.6 8.19s-5.14-7.37-5.39-8.55 6.29-11 6.49-12c.49-2.59-3.27-4.5-3.4-6.2s5.1-5.88 5.14-8.66-6.28-37.39-6.28-37.39zM205.58 277.47a252.1 252.1 0 0 0-22.07 71.27s3.6-36.87 22.07-71.27z" class="cls-78"/>
          <path d="M319.39 114.54s4.64-1 6.57-5 .67-9.92.67-9.92a102.24 102.24 0 0 1-5.45 9.36c-1.81 2.34-2.3 5.02-1.79 5.56z" class="cls-66"/>
        </g>
        <g id="Over">
          <path fill="#36d1f7" d="M177.09 92.77l-3.2 91.4a6.76 6.76 0 0 1-6.76 6.53H9.63a6.76 6.76 0 0 1-6.76-6.6L.67 91.63a6.77 6.77 0 0 1 6.81-6.93l162.9 1.07a6.76 6.76 0 0 1 6.71 7z" opacity=".6"/>
          <path d="M2.22 184.85L0 91.89a7 7 0 0 1 2-5.09 7.1 7.1 0 0 1 5.06-2.1l163.72 1.08a7 7 0 0 1 7 7.26l-3.22 91.89a7 7 0 0 1-7 6.77H9.24a7 7 0 0 1-7.02-6.85zM4 85.47a6.59 6.59 0 0 0-3.42 5.91l2.22 93a6.55 6.55 0 0 0 6.52 6.36h158.12a6.5 6.5 0 0 0 6.52-6.3l3.22-91.95a6.51 6.51 0 0 0-2.72-5.54 6.72 6.72 0 0 0-3.94-1.21L7.14 84.7a6.32 6.32 0 0 0-3.14.77z" class="cls-83"/>
          <path d="M177.19 97.7H.52l-.29-5.16a7.42 7.42 0 0 1 7.46-7.84L171.2 86a6.22 6.22 0 0 1 6.09 6.4z" style="mix-blend-mode:multiply" fill="url(#Áåçûìÿííûé_ãðàäèåíò_89)" opacity=".6"/>
          <path style="mix-blend-mode:multiply" fill="url(#Áåçûìÿííûé_ãðàäèåíò_85)" d="M168.54 104.98v52.72h-54v-53l54 .28z" opacity=".3"/>
          <path transform="rotate(-180 54.545 116.7)" style="mix-blend-mode:multiply" fill="url(#Áåçûìÿííûé_ãðàäèåíò_85-2)" d="M42.54 104.7h24v24h-24z" opacity=".3"/>
          <path transform="rotate(-180 26.545 116.7)" style="mix-blend-mode:multiply" fill="url(#Áåçûìÿííûé_ãðàäèåíò_85-3)" d="M14.54 104.7h24v24h-24z" opacity=".3"/>
          <path transform="rotate(-180 82.545 116.7)" style="mix-blend-mode:multiply" fill="url(#Áåçûìÿííûé_ãðàäèåíò_85-4)" d="M70.54 104.7h24v24h-24z" opacity=".3"/>
          <path d="M14.54 141.7h61v6h-61z" class="cls-89" transform="rotate(-180 45.045 144.7)"/>
          <path d="M14.54 150.7h76v2h-76z" class="cls-89" transform="rotate(-180 52.545 151.7)"/>
          <path d="M75.54 130.7h14v2h-14z" class="cls-89" transform="rotate(-180 82.545 131.7)"/>
          <path d="M47.54 130.7h14v2h-14z" class="cls-89" transform="rotate(-180 54.545 131.7)"/>
          <path d="M19.54 130.7h14v2h-14z" class="cls-89" transform="rotate(-180 26.545 131.7)"/>
          <path d="M70.54 153.7h24v2h-24z" class="cls-89" transform="rotate(-180 82.545 154.7)"/>
          <path d="M14.54 156.7h76v2h-76z" class="cls-89" transform="rotate(-180 52.545 157.7)"/>
          <path d="M14.54 158.7h80v2h-80z" class="cls-89" transform="rotate(-180 54.545 159.7)"/>
          <path d="M14.54 161.7h80v2h-80z" class="cls-89" transform="rotate(-180 54.545 162.7)"/>
          <path d="M14.54 173.7h76v2h-76z" class="cls-89" transform="rotate(-180 52.545 174.7)"/>
          <path d="M14.54 175.7h80v2h-80z" class="cls-89" transform="rotate(-180 54.545 176.7)"/>
          <path d="M14.54 178.7h80v2h-80z" class="cls-89" transform="rotate(-180 54.545 179.7)"/>
          <path d="M17.54 164.7h77v2h-77z" class="cls-89" transform="rotate(-180 56.045 165.7)"/>
          <path d="M14.54 167.7h76v2h-76z" class="cls-89" transform="rotate(-180 52.545 168.7)"/>
          <path d="M29.54 170.7h65v2h-65z" class="cls-89" transform="rotate(-180 62.045 171.7)"/>
          <g class="cls-90">
            <path d="M143.54 131.7a13 13 0 1 1 13 13 13 13 0 0 1-13-13zm.85 0a12.16 12.16 0 1 0 12.15-12.15 12.17 12.17 0 0 0-12.15 12.15z" class="cls-91"/>
          </g>
          <circle cx="156.54" cy="131.7" r="7" class="cls-62"/>
          <circle cx="156.54" cy="131.7" r="5" fill="url(#Áåçûìÿííûé_ãðàäèåíò_25)"/>
          <g class="cls-90">
            <path d="M99.54 104.7a15 15 0 1 1 15 15 15 15 0 0 1-15-15zm1 0a14 14 0 1 0 14-14 14 14 0 0 0-14.02 14z" class="cls-91"/>
          </g>
          <circle cx="114.54" cy="104.7" r="8" class="cls-62"/>
          <path fill="url(#Áåçûìÿííûé_ãðàäèåíò_302)" d="M120.54 104.7a6 6 0 1 1-6-6 6 6 0 0 1 6 6z"/>
          <path d="M14.54 89.7h42v2h-42z" class="cls-62" transform="rotate(-180 35.545 90.7)"/>
          <path transform="rotate(-180 122.545 167.2)" style="mix-blend-mode:multiply" fill="url(#Áåçûìÿííûé_ãðàäèåíò_85-5)" d="M114.54 159.7h16v15h-16z" opacity=".3"/>
          <path transform="rotate(-180 150.545 167.2)" style="mix-blend-mode:multiply" fill="url(#Áåçûìÿííûé_ãðàäèåíò_85-6)" d="M132.54 159.7h36v15h-36z" opacity=".3"/>
          <path d="M117.54 179.7h51v2h-51z" class="cls-89" transform="rotate(-180 143.045 180.7)"/>
          <path d="M125.54 176.7h43v2h-43z" class="cls-89" transform="rotate(-180 147.045 177.7)"/>
          <circle cx="7.04" cy="91.2" r="2.5" fill="url(#Áåçûìÿííûé_ãðàäèåíò_322)"/>
          <path fill="url(#Áåçûìÿííûé_ãðàäèåíò_65)" d="M147.54 51.08V74.7l28 .24.38-24.62-28.38.76z"/>
          <path fill="url(#Áåçûìÿííûé_ãðàäèåíò_14)" d="M176.93 50.1l1.84 3.11-.92 21.49-1.31.02.39-24.62z"/>
          <path d="M152.94 58.8l2.61-3.79 14.11 11.84-2.17 2.89-14.55-10.94z" class="cls-62"/>
          <path d="M170.02 58.8l-2.61-3.79-14.11 11.84 2.17 2.89 14.55-10.94z" class="cls-62"/>
          <path fill="url(#Áåçûìÿííûé_ãðàäèåíò_97)" d="M111.93 245.7H62.68a7.28 7.28 0 0 1-7.28-7l-1.1-32.43a7.28 7.28 0 0 1 7.28-7.53h51.34a7.28 7.28 0 0 1 7.28 7.51l-1 32.43a7.28 7.28 0 0 1-7.27 7.02z" opacity=".73"/>
          <path d="M111.62 245.7H63a7.47 7.47 0 0 1-7.5-7.25l-1.08-31.76a7.78 7.78 0 0 1 1.41-4.87 7.47 7.47 0 0 1 6.09-3.12h50.46a7.83 7.83 0 0 1 4.82 1.56 7.52 7.52 0 0 1 2.91 6.18l-1 32a7.47 7.47 0 0 1-7.49 7.26zm-49.71-46a7 7 0 0 0-5.68 2.9 7.31 7.31 0 0 0-1.32 4.56L56 238.91a7 7 0 0 0 7 6.79h48.61a7 7 0 0 0 7-6.79l1-31.77a7.29 7.29 0 0 0-1.31-4.54 7 7 0 0 0-5.68-2.9z" class="cls-100"/>
          <path d="M76.32 210.55L64.29 224.5l12.25 10.4v-5.37l-7.09-6.13 6.59-7.45.28-5.4zM96.77 211.18l12.03 13.95-12.26 10.4v-5.37l7.09-6.14-7.89-8.34 1.03-4.5zM78.57 234.7l10.44-23h4.91l-11.83 23h-3.52z" class="cls-62"/>
          <path fill="url(#Áåçûìÿííûé_ãðàäèåíò_115)" d="M213.73 328.7h-96.52a7.93 7.93 0 0 1-7.92-7.74l-1.8-79.16a7.92 7.92 0 0 1 7.92-8.1H215.9a7.92 7.92 0 0 1 7.92 8.14L221.64 321a7.9 7.9 0 0 1-7.91 7.7z" opacity=".81"/>
          <path fill="#473da2" d="M214 329.7h-97.09a8.23 8.23 0 0 1-8.16-8l-1.82-79.63a8.19 8.19 0 0 1 8.38-8.39h100.63a8.45 8.45 0 0 1 5.21 1.68 8.15 8.15 0 0 1 3.22 6.75l-2.18 79.6a8.15 8.15 0 0 1-8.19 7.99zm-98.86-96a7.71 7.71 0 0 0-6.6 3.72 7.8 7.8 0 0 0-1.09 4.33l1.81 79.43a7.73 7.73 0 0 0 7.69 7.52H214a7.67 7.67 0 0 0 7.67-7.46l2.18-79.63a7.69 7.69 0 0 0-3.55-6.71 7.8 7.8 0 0 0-4.31-1.2z"/>
          <path d="M122.54 249.7h66v2h-66zM122.54 255.7h33v2h-33zM122.54 259.7h33v2h-33zM159.54 259.7h26v2h-26zM122.54 263.7h53v2h-53zM122.54 268.7h19v2h-19zM145.54 281.7h33v2h-33zM121.54 272.7h60v2h-60zM122.54 277.7h46v2h-46zM121.54 281.7h22v2h-22zM122.54 286.7h33v2h-33zM121.54 290.7h10v2h-10zM135.54 290.7h35v2h-35zM145.54 294.7h33v2h-33zM121.54 294.7h22v2h-22zM122.54 299.7h33v2h-33zM121.54 303.7h10v2h-10zM135.54 303.7h35v2h-35z" class="cls-62"/>
          <path fill="url(#Áåçûìÿííûé_ãðàäèåíò_302-2)" d="M118 240.7a2.5 2.5 0 1 1-2.5-2.5 2.5 2.5 0 0 1 2.5 2.5z"/>
          <circle cx="124.04" cy="241.2" r="2.5" fill="url(#Áåçûìÿííûé_ãðàäèåíò_322-2)"/>
          <circle cx="382.54" cy="205.7" r="3" fill="url(#Áåçûìÿííûé_ãðàäèåíò_25-2)"/>
          <path fill="url(#Áåçûìÿííûé_ãðàäèåíò_97-2)" d="M341.51 337.7H281a9.12 9.12 0 0 1-9.11-8.8l-1.34-39.78a9.11 9.11 0 0 1 9.11-9.42h63.1a9.12 9.12 0 0 1 9.11 9.39l-1.22 39.78a9.11 9.11 0 0 1-9.14 8.83z" opacity=".73"/>
          <path d="M341.83 337.7h-61.18a9.34 9.34 0 0 1-9.37-9.06l-1.36-40.24a9.35 9.35 0 0 1 3.42-7.57 9.67 9.67 0 0 1 6.21-2.13h63.3a9.57 9.57 0 0 1 5.59 1.69 9.4 9.4 0 0 1 4 8l-1.23 40.24a9.34 9.34 0 0 1-9.38 9.07zm-62.33-58a9 9 0 0 0-5.31 1.61 8.84 8.84 0 0 0-3.77 7.57l1.36 40.24a8.84 8.84 0 0 0 8.87 8.58h61.2a8.86 8.86 0 0 0 8.86-8.59l1.23-40.26a8.89 8.89 0 0 0-3.79-7.56 9.1 9.1 0 0 0-5.29-1.59z" class="cls-100"/>
          <path d="M282.54 290.7h56v33h-56z" class="cls-89"/>
          <path d="M305.54 298.55v16.73l14.29-9.13-14.29-7.6z" class="cls-62"/>
          <path d="M282.54 326.7h56v3h-56z" class="cls-89"/>
          <path d="M282.54 326.7h14v3h-14z" class="cls-62"/>
          <g class="cls-90">
            <path d="M281.54 285.39l-.91-1.39-4.96 4.34.76 1.06 5.11-4.01z" class="cls-62"/>
            <path d="M275.54 285.39l.92-1.39 4.96 4.34-.76 1.06-5.12-4.01z" class="cls-62"/>
          </g>
          <path fill="url(#Áåçûìÿííûé_ãðàäèåíò_206)" fill-rule="evenodd" d="M353.13 245.12l-2.92 8.35c1.61-4.62 3.93-7.61 2.92-8.35zm-2.92 8.35l-2.92 8.34c.71-.22 1.3-3.73 2.92-8.34zm2.92-8.35l-2.92 8.35c1.61-4.62 3.93-7.61 2.92-8.35zm-2.92 8.35l-2.92 8.34c.71-.22 1.3-3.73 2.92-8.34zm8.43 7.23l2.83 1.6 3.06-8.35-3.28-.55c.06-.31.12-.62.16-.92a22.2 22.2 0 0 0 .28-4.17l3.42-2.15-1.56-7.35-3.28 3.19a9.68 9.68 0 0 0-1.69-2.45 7.4 7.4 0 0 0-.56-.56l2-4.64-5.35-1.74-1.29 4.68a8.77 8.77 0 0 0-3.62.85l-.59-4.42-5.89 4.45 1.37 3.92a21.88 21.88 0 0 0-2.88 4.18l-2.83-1.6-3.05 8.33 3.27.54a23.24 23.24 0 0 0-.43 5.09l-3.43 2.16 1.56 7.35 3.29-3.14a9.32 9.32 0 0 0 2.25 3l-2 4.64 5.26 2.06.82-3 .55-2a8.94 8.94 0 0 0 3.63-.85l.58 4.42 5.89-4.45-1.36-3.92a23.16 23.16 0 0 0 2.32-3.21c.18-.33.36-.69.55-.99zm-8.43-7.23c-1.62 4.61 0 9.36-2.92 8.34s-4-5.6-2.39-10.2 5.3-7.52 8.23-6.49-1.31 3.73-2.92 8.35zm2.92-8.35l-2.92 8.35c1.61-4.62 3.93-7.61 2.92-8.35zm-2.92 8.35l-2.92 8.34c.71-.22 1.3-3.73 2.92-8.34z"/>
          <path fill="url(#Áåçûìÿííûé_ãðàäèåíò_206-2)" fill-rule="evenodd" d="M361.47 262.3l3.06-8.35-3.12-1.47-.51-.24.33-4.6 3.47-1.64-1.15-7.14-7.55-2.51 1.39 3.31 2.61-5.36-5.35-1.74-2.2-.71-5.27-2.06-1 3.6-4.58-2.18-5.89 4.46 1.79 4.81-5.5 15.27-2.72 9.91 5.23.57-1.7 3.93 5.27 2.06 7.54 2.46-1.21-2.43-.76-1.45 2.79.91 4.76 1.55 5.89-4.45-3.64-4.29 4.6-2.84zm-16.57-10.69c1.62-4.61 5.3-7.52 8.23-6.49l-2.92 8.35-2.92 8.34c-2.93-1.03-4-5.6-2.39-10.2z"/>
          <path fill="url(#Áåçûìÿííûé_ãðàäèåíò_107)" fill-rule="evenodd" d="M353.93 259.84l3.05-8.35-3.28-.55a22.44 22.44 0 0 0 .44-5.08l3.43-2.15-1.57-7.36-3.29 3.14a9.32 9.32 0 0 0-2.25-3l2-4.64-5.27-2.06-1.36 5a8.93 8.93 0 0 0-3.63.84l-.58-4.41-5.89 4.45 1.36 3.92a22.91 22.91 0 0 0-2.88 4.19l-2.83-1.6-3.06 8.35 3.28.55a22.44 22.44 0 0 0-.44 5.08l-3.43 2.15 1.57 7.36 3.28-3.14a9.32 9.32 0 0 0 2.25 3l-2 4.64 5.27 2.06 1.37-5a8.93 8.93 0 0 0 3.62-.85l.58 4.42 5.89-4.45-1.36-3.92a22.91 22.91 0 0 0 2.88-4.19zm-14.19-.49c-2.93-1-4-5.59-2.38-10.2s5.3-7.52 8.22-6.49 4 5.59 2.38 10.2-5.29 7.52-8.22 6.49z"/>
          <path d="M365.11 246.16l-7.54-2.45-3.43 2.15 7.55 2.45 3.42-2.15z" class="cls-110"/>
          <path style="mix-blend-mode:soft-light" fill="#b3d9ff" fill-rule="evenodd" d="M357.12 268.81l-7.55-2.46-1.36-3.92 7.55 2.46 1.36 3.92z"/>
          <path d="M350.47 236.49l4.14 1.2 1.4-1.34 2.74.89 1.28-2.93-7.55-2.46-2.01 4.64zM339.48 267.23l3.95 1.64-.33-2.49a7.06 7.06 0 0 1-3.62.85zM340.09 244.61l6.65 3.51a10.23 10.23 0 0 1 1.71-1.81s-1.73-7.31-8.36-1.7z" class="cls-110"/>
          <path fill="#ff1d9c" d="M164.38 12.21l6.42 12.85-4.29 1.95-6-11.8 3.87-3z"/>
          <path fill="#6877ff" d="M369.97 226.82l5.93 6.51 2.34-2.69-5.61-6.17-2.66 2.35z"/>
          <path d="M383.33 104.39l-5.98 3.63-2.39-4.54 6.53-3.82 1.84 4.73zM230.79 3.32l-8.57 6.08-2.4-4.54L228.14 0l2.65 3.32z" class="cls-114"/>
          <path fill="url(#Áåçûìÿííûé_ãðàäèåíò_107-2)" fill-rule="evenodd" d="M362.51 42.8l-1.46-34.1h44.64l-1.83 34-41.35.1z"/>
          <path fill="url(#Áåçûìÿííûé_ãðàäèåíò_206-3)" fill-rule="evenodd" d="M361.33 9.04l-1.32 1.99 1.32 31.67h1.45l-1.45-33.66z"/>
          <path d="M375.54 16.06l-6.91-.74.94 23.06 5.97-.58v-2.39l-3.45.08-.4-17.78 3.85.11v-1.76zM390.54 16.06l6.92-.74-.95 23.06-5.97-.58v-2.39l3.46.08.4-17.78-3.86.11v-1.76z" class="cls-62"/>
          <path fill="url(#Áåçûìÿííûé_ãðàäèåíò_107-3)" fill-rule="evenodd" d="M344.16 68.77l.99-23.07h-30.2l1.24 23 27.97.07z"/>
          <path fill="url(#Áåçûìÿííûé_ãðàäèåíò_206-4)" fill-rule="evenodd" d="M345.07 45.76l.9 1.35-.9 21.59h-.99l.99-22.94z"/>
          <path d="M333.54 50.45a19.56 19.56 0 0 1 3.83.14c.59.27-.15 5.64-.15 5.64l1.32 1.2-1.23 1.19s.06 5.44-.71 5.9-3.42 0-4.06 0v-1.36c.64 0 2.8.14 3.15-.16s.33-5 .33-5l.58-.63-.58-.69s.11-3.39 0-4.32c0-.62-2.56-.65-2.52-.65zM326.54 50.45a24.62 24.62 0 0 0-4.46.14c-.58.27.15 5.64.15 5.64l-1.31 1.2 1.22 1.19s-.06 5.44.71 5.9 3.43 0 3.69 0v-1.36c-.26 0-2.43.14-2.78-.16s-.33-5-.33-5l-.58-.63.58-.69s-.1-3.39 0-4.32c0-.62 2.56-.65 3.15-.65z" class="cls-62"/>
          <path d="M306.76 34.67L299.4 15.4l19.09 4zm-6.56-18.59l6.71 17.58 10.7-13.94z" class="cls-83"/>
          <path d="M132.47 220.21h10.94v.5h-10.94z" class="cls-83" transform="rotate(-53.8 137.505 219.49)"/>
          <path d="M304.46 237.86l-6.95-8.64.39-.32 6.95 8.65-.39.31zM304.19 67.83l-13.65-9.9.29-.4 13.65 9.91-.29.39z" class="cls-83"/>
          <path d="M288.95 63.84h17.13v.5h-17.13z" class="cls-83" transform="rotate(-52.7 297.516 64.094)"/>
          <path d="M109.13 63.42h.5v10.14h-.5z" class="cls-83" transform="rotate(-62.28 109.388 68.498)"/>
          <path d="M361.91 87.23l-.38-.33 10.37-11.83.38.33-10.37 11.83z" class="cls-83"/>
          <path d="M212.98 58.25h.5v10.41h-.5z" class="cls-83" transform="rotate(-26.45 213.214 63.443)"/>
          <path d="M259.9 8.45h15.54v.5H259.9z" class="cls-83" transform="rotate(-39.91 267.69 8.693)"/>
          <path fill="url(#Áåçûìÿííûé_ãðàäèåíò_29)" d="M379.47 120.45c-.24 1.52.42 4.15 3.59 7.49l-13.3 32.25a8.47 8.47 0 1 0 8.75 4.09l16.21-30.91c4.69.29 7.12-1 8-2.05.18-.2 1.18-2.52 1.18-2.52a23.75 23.75 0 0 0 .33-14l-2.35-1.1-4 10.23a10.31 10.31 0 0 1-6.46 1.18 10.33 10.33 0 0 1-3.24-5.72l5.3-9.61-2.36-1.09a23.77 23.77 0 0 0-10.55 9.26 27.3 27.3 0 0 0-1.1 2.5zm-12.57 46.07l3.89-2.71 4.29 2 .41 4.72-3.88 2.72-4.3-2z"/>
          <path fill="url(#Áåçûìÿííûé_ãðàäèåíò_28)" d="M381.89 130.46l-13.31 32.25a8.47 8.47 0 1 0 8.76 4.09l16.2-30.91c5.57.34 9.23-4.57 9.23-4.57a23.79 23.79 0 0 0 .34-14l-2.35-1.1-4 10.22a10.31 10.31 0 0 1-6.47 1.19 10.26 10.26 0 0 1-3.24-5.72l5.29-9.61-2.35-1.1a23.83 23.83 0 0 0-10.55 9.27s-1.39 5.94 2.45 9.99zM365.73 169l3.88-2.72 4.29 2 .41 4.72-3.88 2.71-4.29-2z"/>
          <path d="M401.13 114.17h2.78v2.59h-2.78z" class="cls-121" transform="rotate(-64.96 402.5 115.475)"/>
          <path d="M390.39 109.18h2.78v2.59h-2.78z" class="cls-121" transform="rotate(-64.96 391.76 110.481)"/>
          <path d="M367.48 171.13h2.78v4.74h-2.78z" class="cls-121" transform="rotate(-64.96 368.859 173.506)"/>
          <path fill="url(#Áåçûìÿííûé_ãðàäèåíò_28-2)" d="M382.36 134.58l-10.66 26.28a6.41 6.41 0 0 0 5.29 2.47l13.08-25.15a10 10 0 0 0-7.71-3.6zm.57.48a11 11 0 0 1 3.24 1 13.45 13.45 0 0 1 3.15 2.06l-13.11 24.64a6.44 6.44 0 0 1-1.8-.54 7.69 7.69 0 0 1-1.7-1.11z"/>
          <path d="M372.71 161.07l-1-.21a5.66 5.66 0 0 0 5.29 2.47l-.78-.61a7.17 7.17 0 0 1-3.51-1.65z" class="cls-121"/>
          <path d="M390.07 138.18l-.75-.1a12.16 12.16 0 0 0-6.39-3l-.57-.48a9.79 9.79 0 0 1 7.71 3.6z" style="mix-blend-mode:multiply" fill="url(#Áåçûìÿííûé_ãðàäèåíò_27)" opacity=".62"/>
          <path d="M393.54 135.89a28.86 28.86 0 0 1-11.65-5.43l-1.71 4.12s1.93-1.91 6.17-.18c4.95 2 4.68 6 4.68 6z" style="mix-blend-mode:multiply" fill="url(#Áåçûìÿííûé_ãðàäèåíò_94)" opacity=".62"/>
          <path d="M380.18 134.58a5.15 5.15 0 0 1 2.59-.89l-12.66 30.59-1.53-1.57z" style="mix-blend-mode:screen" fill="url(#Áåçûìÿííûé_ãðàäèåíò_95)" opacity=".5"/>
          <path d="M380.18 134.58s1.33 4.09-2.48 6z" class="cls-62"/>
        </g>
        <g id="Design_Develop" data-name="Design &amp; Develop">
          <path d="M218.19 159.66a7.31 7.31 0 0 1 2.39.45 11.2 11.2 0 0 1 2.41 1.17 7.23 7.23 0 0 1 1.86 1.75 3.52 3.52 0 0 1 .75 2.08c0 .52-.42 1.17-1.27 1.95a13 13 0 0 1-2.93 2 6.4 6.4 0 0 1-2.73.86c-.16 0-.41-.21-.76-.63a1.84 1.84 0 0 1-.53-.91 18.17 18.17 0 0 1 .77-3.2c.5-1.75.82-3 .94-3.61a3.06 3.06 0 0 1-.84-.8 1.54 1.54 0 0 1-.34-.8c0-.2.09-.31.28-.31zm5.39 5.05c0-.29-.27-.69-.82-1.18a7.23 7.23 0 0 0-1.92-1.22 26.88 26.88 0 0 1-1.19 4.49c0 .12-.1.32-.18.59a4.59 4.59 0 0 1-.17.56 10.3 10.3 0 0 0 2.83-1.56c.97-.74 1.45-1.29 1.45-1.68zM231.67 166.58a3.77 3.77 0 0 1-1.91.54 7.81 7.81 0 0 1-1.61-.14 2.25 2.25 0 0 0-.13.76.86.86 0 0 0 .13.54c.08.1.29.16.63.16a7.21 7.21 0 0 0 1.8-.2l.77-.19c.39 0 .58.12.58.37s-.3.71-.91 1a4.24 4.24 0 0 1-2.08.49 2.54 2.54 0 0 1-1.9-.74 2.48 2.48 0 0 1-.71-1.76 4.54 4.54 0 0 1 .59-2.12 6.4 6.4 0 0 1 1.49-1.86 2.8 2.8 0 0 1 1.79-.74 2.16 2.16 0 0 1 1.64.87 2.64 2.64 0 0 1 .76 1.74c0 .5-.31.91-.93 1.28zm-1-1.87a.87.87 0 0 0-.55-.26 1.13 1.13 0 0 0-.67.37 4.61 4.61 0 0 0-.77 1h.37c1.28 0 1.92-.22 1.92-.67.03-.15-.09-.26-.29-.44zM237.63 162.74a1.43 1.43 0 0 1 1.05.63 1.9 1.9 0 0 1 .51 1.13c0 .23-.09.34-.29.34a1.36 1.36 0 0 1-.49-.13 1.65 1.65 0 0 0-.65-.14 3.31 3.31 0 0 0-1 .23c-.42.15-.63.34-.63.58s.12.23.37.41l.83.55a3.13 3.13 0 0 1 .83.77 1.77 1.77 0 0 1 .37 1.08q0 .59-.84 1.17a3.43 3.43 0 0 1-2 .59 3.51 3.51 0 0 1-1.95-.52c-.55-.34-.82-.7-.82-1.06s.15-.55.45-.55a1 1 0 0 1 .44.14 3.39 3.39 0 0 0 1.74.41c.69 0 1-.1 1-.28a.91.91 0 0 0-.4-.63 7.06 7.06 0 0 0-.86-.63 4.27 4.27 0 0 1-.87-.72 1.26 1.26 0 0 1-.4-.84c0-.5.45-1.05 1.37-1.64a4.46 4.46 0 0 1 2.24-.89zM241.28 162.73a1 1 0 0 1 .87.56 1.88 1.88 0 0 1 .39 1.07 12.67 12.67 0 0 1-.48 1.91q-.5 1.65-1 3.12a.68.68 0 0 1-.69.55.75.75 0 0 1-.54-.24.81.81 0 0 1-.23-.6 11.6 11.6 0 0 1 .36-1.85q.36-1.47.54-2.52a14.62 14.62 0 0 1 .35-1.52q.21-.48.43-.48zm-.21-1.75a1.14 1.14 0 0 1 .33-.75.89.89 0 0 1 .64-.39c.21 0 .46.25.75.76a2.66 2.66 0 0 1 .44 1.1.63.63 0 0 1-.23.52.72.72 0 0 1-.46.18 2.06 2.06 0 0 1-1.47-1.42zM248.87 165.75a.84.84 0 0 1 .21.57 1.84 1.84 0 0 1-.28.83 11.49 11.49 0 0 0-.62 2.09 18.87 18.87 0 0 1-.52 2 8.27 8.27 0 0 1-.56 1.28 2.56 2.56 0 0 1-.82.88 2 2 0 0 1-1.19.35 2.54 2.54 0 0 1-1.68-.61c-.5-.41-.74-.77-.74-1.06a1.41 1.41 0 0 1 .23-.8c.16-.24.31-.35.44-.35a.53.53 0 0 1 .4.22 5.92 5.92 0 0 1 .35.48 1.92 1.92 0 0 0 .42.49 1 1 0 0 0 .59.22c.22 0 .41-.14.59-.42a3.57 3.57 0 0 0 .41-.91c.23-.77.37-1.31.43-1.64a3.25 3.25 0 0 1-1.53.63 1.57 1.57 0 0 1-1.15-.65 1.93 1.93 0 0 1-.56-1.23 4.45 4.45 0 0 1 .31-1.46 11.4 11.4 0 0 1 .81-1.75 5.72 5.72 0 0 1 1.26-1.5 2.41 2.41 0 0 1 1.54-.63 1.5 1.5 0 0 1 .88.25 1.54 1.54 0 0 1 .53.7 4.56 4.56 0 0 1 .3 1.7 2.86 2.86 0 0 1-.05.32zm-4 2.25c0 .13 0 .19.15.19a2.73 2.73 0 0 0 1.32-.75 3.93 3.93 0 0 0 1.21-1.47v-.26a2.18 2.18 0 0 0-.16-1.11.33.33 0 0 0-.23-.1c-.45 0-.94.47-1.48 1.42a5 5 0 0 0-.82 2.08zM255.22 162.73a1.6 1.6 0 0 1 1.28.65 2.09 2.09 0 0 1 .56 1.39 8.58 8.58 0 0 1-.39 2.48 7.4 7.4 0 0 1-.84 2c-.3.47-.61.7-.92.7s-.47-.22-.47-.66a9 9 0 0 1 .46-2 8 8 0 0 0 .35-1.8c0-.37-.05-.55-.14-.55a.52.52 0 0 0-.36.18c-.11.12-.21.23-.28.32s-.16.22-.26.36l-.25.39-.27.45c-.11.18-.19.33-.26.45s-.15.27-.25.45c-.87 1.63-1.55 2.44-2 2.44q-.3 0-.75-.51a1.43 1.43 0 0 1-.44-.75 2.38 2.38 0 0 1 .2-.67c.13-.34.23-.6.29-.78s.11-.38.16-.58.07-.43.1-.67.05-.42.06-.55 0-.33.05-.61a13.12 13.12 0 0 1 .22-2c.06-.13.13-.2.2-.2a1.55 1.55 0 0 1 1 .44 1.24 1.24 0 0 1 .49.81 10.12 10.12 0 0 1-.45 2.49 26.48 26.48 0 0 1 1.66-2.61c.49-.73.91-1.06 1.25-1.06zM268 170a3 3 0 0 0 1.53 1 4.05 4.05 0 0 1 1.06.35.35.35 0 0 1 .19.41.78.78 0 0 1-.62.59 2.66 2.66 0 0 1-1.33-.05 4.16 4.16 0 0 1-2.34-1.82 7.9 7.9 0 0 1-3.68.53 1.89 1.89 0 0 1-1.14-1 2.05 2.05 0 0 1-.37-1.39c.07-.3.44-.64 1.1-1s1.07-.6 1.53-.83l.77-.38.14-.07a6.66 6.66 0 0 1 0-2.59 2.33 2.33 0 0 1 1.27-1.62 3.15 3.15 0 0 1 2.3-.23 1.66 1.66 0 0 1 1.32 1.4 2.84 2.84 0 0 1 0 1.09c-.21.87-1.2 1.8-3 2.8a7.76 7.76 0 0 0 .37 1.22l1.74-.66a10.55 10.55 0 0 1 2.35-.78c.44.11.61.4.49.89-.06.25-.44.57-1.14 1A17.75 17.75 0 0 1 268 170zm-4.83-.59a6.12 6.12 0 0 0 2.44-.49c-.09-.2-.21-.52-.36-.94a17.19 17.19 0 0 0-1.91 1.06.75.75 0 0 0-.23.26c0 .07.02.11.07.12zm4.53-5.17c.09-.48 0-.76-.29-.83a.43.43 0 0 0-.44.19 3.07 3.07 0 0 0-.44 1.81q1.05-.63 1.18-1.16zM220.65 180.06a7.25 7.25 0 0 1 2.38.45 11 11 0 0 1 2.41 1.17 6.93 6.93 0 0 1 1.86 1.75 3.5 3.5 0 0 1 .75 2.08q0 .78-1.26 2a13.3 13.3 0 0 1-2.94 2 6.4 6.4 0 0 1-2.73.86c-.15 0-.41-.21-.76-.63a1.79 1.79 0 0 1-.52-.91 17.72 17.72 0 0 1 .76-3.2c.51-1.75.82-3 .94-3.61a3.37 3.37 0 0 1-.84-.8 1.51 1.51 0 0 1-.33-.8c0-.25.09-.36.28-.36zm5.39 5.05c0-.29-.28-.69-.83-1.18a7.23 7.23 0 0 0-1.92-1.22 25.87 25.87 0 0 1-1.19 4.49c0 .12-.09.32-.17.59s-.14.46-.18.56a10.16 10.16 0 0 0 2.83-1.56c.97-.74 1.42-1.29 1.42-1.68zM234.12 187a3.77 3.77 0 0 1-1.91.54 7.88 7.88 0 0 1-1.61-.14 2.51 2.51 0 0 0-.12.76.94.94 0 0 0 .12.54.88.88 0 0 0 .63.16 7.21 7.21 0 0 0 1.8-.2l.78-.19c.38 0 .57.12.57.37s-.3.71-.9 1a4.27 4.27 0 0 1-2.09.49 2.5 2.5 0 0 1-1.89-.74 2.45 2.45 0 0 1-.72-1.76 4.45 4.45 0 0 1 .6-2.12 6.09 6.09 0 0 1 1.49-1.86 2.76 2.76 0 0 1 1.78-.74 2.18 2.18 0 0 1 1.65.87 2.68 2.68 0 0 1 .75 1.74c0 .48-.31.89-.93 1.28zm-1-1.87a.89.89 0 0 0-.56-.26 1.11 1.11 0 0 0-.66.37 4.31 4.31 0 0 0-.77 1h.36c1.28 0 1.92-.22 1.92-.67.02-.14-.08-.28-.27-.46zM240.51 183.13a1.16 1.16 0 0 1 .71.25.72.72 0 0 1 .34.54 8 8 0 0 1-.83 2.34 25.19 25.19 0 0 1-1.54 3c-.47.74-.84 1.12-1.1 1.12a1.33 1.33 0 0 1-.61-.28 1.46 1.46 0 0 1-.51-.57 21.4 21.4 0 0 1-.81-3 18 18 0 0 1-.48-2.78c0-.39.13-.58.4-.58a1.67 1.67 0 0 1 1 .37 2.33 2.33 0 0 1 .93 1.73c0 .33.06.74.07 1.23a8.45 8.45 0 0 0 .13 1.27c.22-.43.5-1.07.83-1.91s.6-1.5.84-2 .44-.73.63-.73zM246.86 187a3.77 3.77 0 0 1-1.91.54 7.88 7.88 0 0 1-1.61-.14 2.51 2.51 0 0 0-.12.76.94.94 0 0 0 .12.54.88.88 0 0 0 .63.16 7.21 7.21 0 0 0 1.8-.2l.78-.19c.38 0 .57.12.57.37s-.3.71-.9 1a4.27 4.27 0 0 1-2.09.49 2.5 2.5 0 0 1-1.89-.74 2.45 2.45 0 0 1-.72-1.76 4.45 4.45 0 0 1 .6-2.12 6.09 6.09 0 0 1 1.49-1.86 2.76 2.76 0 0 1 1.78-.74 2.2 2.2 0 0 1 1.61.89 2.68 2.68 0 0 1 .75 1.74c.04.46-.27.87-.89 1.26zm-1-1.87a.89.89 0 0 0-.56-.26 1.11 1.11 0 0 0-.66.37 4.31 4.31 0 0 0-.77 1h.36c1.28 0 1.92-.22 1.92-.67.02-.14-.08-.28-.27-.46zM251.2 179.82a1.86 1.86 0 0 1 .53 1.18c0 .37-.06 1-.17 2s-.23 1.72-.35 2.29q-1.17 5.07-1.62 5.07c-.21 0-.46-.17-.77-.5a1.38 1.38 0 0 1-.45-.82s.12-.5.38-1.45.5-2.18.76-3.68a25.1 25.1 0 0 0 .38-4.29c0-.27.15-.4.44-.4s.51.19.87.6zM253.09 184.68c.73-1.05 1.44-1.57 2.15-1.57a2.39 2.39 0 0 1 1.79.75 2.48 2.48 0 0 1 .73 1.81 5.21 5.21 0 0 1-.5 2.15 5 5 0 0 1-1.42 1.81 3.05 3.05 0 0 1-1.94.72 1.65 1.65 0 0 1-1.33-.69A2.49 2.49 0 0 1 252 188a5.74 5.74 0 0 1 1.09-3.32zm2.28 2.88a4 4 0 0 0 .56-1.91 2.17 2.17 0 0 0-.26-1.24 3.68 3.68 0 0 0-1.19 1.47 4.33 4.33 0 0 0-.6 2 2.14 2.14 0 0 0 .17 1.07 3 3 0 0 0 1.32-1.39zM263.54 183.52c.35 0 .72.31 1.12.92a3.47 3.47 0 0 1 .59 1.85 2.67 2.67 0 0 1-.47 1.33 7.34 7.34 0 0 1-1.2 1.45 7.2 7.2 0 0 1-1.67 1.16 4.09 4.09 0 0 1-1.8.47H260c-.59 2.45-1 3.67-1.25 3.67s-.4-.16-.62-.49a1.6 1.6 0 0 1-.33-.81 13.33 13.33 0 0 1 .4-2 33.66 33.66 0 0 0 1.21-7.39c0-.28.13-.42.4-.42a1.62 1.62 0 0 1 .86.38 1.58 1.58 0 0 1 .64 1 3.43 3.43 0 0 1 2.23-1.12zm-1.1 3.93a2.75 2.75 0 0 0 1-1.72c0-.49-.14-.73-.41-.73a1.88 1.88 0 0 0-1.25.67 5.23 5.23 0 0 0-.58.83 6.22 6.22 0 0 0-.56 1.27l-.24.89a3.93 3.93 0 0 0 2.04-1.21z" class="cls-126"/>
        </g>
      </g>
    </g>
  </g>
</svg>
